<svg width="433" height="422" viewBox="0 0 433 422" fill="none" xmlns="http://www.w3.org/2000/svg">
<path d="M250.407 143.471C255.711 143.471 388.026 142.547 425.344 142.547C427.956 142.547 424.651 138.027 423.215 137.705C418.624 136.701 413.833 136.651 409.152 136.168C404.554 135.742 400.046 134.624 395.781 132.854C392.105 131.307 388.438 129.508 384.45 128.835C376.756 127.63 370.005 131.849 362.783 133.647C360.59 134.281 358.289 134.448 356.028 134.138C353.767 133.829 351.595 133.049 349.654 131.849C346.319 129.84 343.285 127.449 339.799 125.681C333.125 122.392 325.844 120.516 318.412 120.17C310.979 119.824 303.556 121.017 296.605 123.672C293.293 124.946 290.125 126.566 287.152 128.504C283.627 130.824 280.583 133.778 277.047 136.068C269.212 141.091 259.528 139.483 250.98 142.386C250.477 142.587 249.945 143.471 250.407 143.471Z" fill="#EBEBEB"/>
<path d="M242.803 24.9277C249.834 24.9277 367.745 25.7012 375.159 25.4702C375.691 25.4702 375.972 24.6666 375.45 24.4054C370.769 22.095 365.475 22.5571 360.623 20.9197C357.76 19.9152 356.002 18.087 354.023 15.8971C352.385 14.0205 350.261 12.6305 347.886 11.879C345.716 11.2272 343.413 11.1545 341.206 11.6681C338.815 12.2406 336.736 13.6068 334.455 14.4707C328.79 16.6103 323.285 14.5812 319.237 10.3923C315.902 6.93677 312.617 3.67208 308.087 1.81371C306.235 0.975783 304.229 0.529023 302.197 0.501368C300.164 0.473713 298.148 0.865758 296.273 1.65299C291.944 3.61181 288.981 7.54953 284.912 9.9202C280.101 12.7329 274.335 12.0699 269.021 12.9338C263.707 13.7977 259.619 18.2678 254.958 20.8494C253.437 21.8252 251.68 22.3703 249.875 22.4265C248.87 22.4265 247.805 22.1151 246.781 21.9845C245.173 21.7836 243.647 21.8338 242.562 23.1698C242.291 23.5415 242.351 24.9277 242.803 24.9277Z" fill="#EBEBEB"/>
<path d="M6.79057 86.2136C11.9036 86.2136 98.0011 86.7862 103.415 86.6053C103.797 86.6053 104.008 86.0227 103.626 85.8319C100.211 84.1443 96.3436 84.4858 92.7977 83.2904C90.7083 82.5873 89.4325 81.2211 87.986 79.6641C86.7856 78.299 85.2371 77.2852 83.5059 76.7309C81.9197 76.2548 80.2364 76.2028 78.6239 76.5802C76.9391 77.1454 75.2918 77.8164 73.6917 78.5893C69.5631 80.1463 65.545 78.6696 62.5917 75.5757C60.1507 73.0544 57.76 70.6736 54.445 69.3175C53.0942 68.7049 51.6314 68.378 50.1482 68.3573C48.6651 68.3365 47.1937 68.6224 45.8263 69.197C42.662 70.6234 40.4923 73.5064 37.5289 75.2241C34.0131 77.2834 29.8041 76.7912 25.9267 77.414C22.0492 78.0368 19.0558 81.3015 15.6504 83.19C14.5398 83.9048 13.2541 84.3009 11.9337 84.3351C11.1803 84.3351 10.4269 84.1141 9.67354 84.0237C9.13121 83.8724 8.55771 83.8729 8.01566 84.0253C7.4736 84.1776 6.9838 84.4759 6.59971 84.8876C6.45907 85.2091 6.45908 86.2136 6.79057 86.2136Z" fill="#EBEBEB"/>
<path d="M326.751 88.4537C331.874 88.4537 417.971 89.0263 423.376 88.8454C423.767 88.8454 423.978 88.2628 423.587 88.072C420.181 86.3844 416.314 86.7259 412.768 85.5305C410.678 84.8274 409.403 83.4612 407.956 81.9042C406.756 80.5391 405.207 79.5253 403.476 78.971C401.89 78.4949 400.207 78.4429 398.594 78.8203C396.909 79.3855 395.262 80.0565 393.662 80.8294C389.523 82.3864 385.505 80.9097 382.552 77.8158C380.121 75.2945 377.72 72.9137 374.415 71.5576C373.063 70.9448 371.598 70.6178 370.113 70.597C368.629 70.5763 367.156 70.8623 365.786 71.4371C362.632 72.8635 360.462 75.7465 357.499 77.4642C353.983 79.4733 349.774 79.0313 345.887 79.6541C341.999 80.2769 339.026 83.5416 335.621 85.4301C334.522 86.1649 333.244 86.5852 331.924 86.6455C331.165 86.5786 330.411 86.4713 329.664 86.3241C329.12 86.1751 328.547 86.1778 328.005 86.3319C327.463 86.4859 326.974 86.7855 326.59 87.198C326.379 87.4391 326.419 88.4537 326.751 88.4537Z" fill="#EBEBEB"/>
<path d="M91.1201 172.251C96.2432 172.251 182.341 172.823 187.755 172.643C188.137 172.643 188.348 172.06 187.966 171.869C184.551 170.182 180.683 170.523 177.137 169.328C175.048 168.625 173.772 167.258 172.326 165.701C171.125 164.336 169.577 163.322 167.845 162.768C166.259 162.292 164.576 162.24 162.963 162.617C161.279 163.183 159.631 163.854 158.031 164.627C153.903 166.184 149.875 164.707 146.982 161.613C144.541 159.092 142.15 156.711 138.835 155.355C137.482 154.742 136.018 154.415 134.533 154.394C133.048 154.373 131.575 154.659 130.206 155.234C127.052 156.661 124.882 159.544 121.919 161.261C118.403 163.27 114.194 162.828 110.317 163.451C106.439 164.074 103.446 167.339 100.04 169.227C98.9296 169.942 97.6439 170.338 96.3235 170.372C95.5651 170.305 94.8107 170.197 94.0634 170.051C93.52 169.903 92.9466 169.906 92.4049 170.06C91.8632 170.214 91.3738 170.513 90.9895 170.925C90.7485 171.246 90.8389 172.251 91.1201 172.251Z" fill="#EBEBEB"/>
<path d="M53.2296 123.863C53.33 124.154 188.94 123.863 187.223 123.863C186.449 123.863 188.408 122.698 187.645 122.316C183.235 120.126 178.403 120.066 173.581 119.624C170.737 119.502 167.944 118.819 165.364 117.615C162.813 116.279 161.216 113.948 159.407 111.809C156.613 108.498 153.02 105.954 148.968 104.418C144.917 102.882 140.541 102.404 136.253 103.029C126.61 104.546 119.006 111.889 109.352 113.235C103.546 114.049 98.0614 111.809 92.3858 111.015C88.0001 110.412 83.5363 111.228 79.6485 113.346C76.6349 114.863 73.762 116.138 70.3064 116.359C67.6545 116.54 64.9925 116.239 62.3305 116.209C57.9926 116.317 53.8427 118.003 50.658 120.95C50.1758 121.322 48.8097 123.863 53.2296 123.863Z" fill="#EBEBEB"/>
<path d="M286.64 133.848H146.168V329.85H286.64V133.848Z" fill="#FFC727"/>
<path opacity="0.7" d="M286.64 133.848H146.168V329.85H286.64V133.848Z" fill="white"/>
<path d="M266.55 263.481H166.258V268.534H266.55V263.481Z" fill="#FFC727"/>
<path d="M247.102 268.534H185.766V325.842H247.102V268.534Z" fill="#455A64"/>
<path d="M242.974 272.763H189.895V325.842H242.974V272.763Z" fill="#37474F"/>
<g opacity="0.5">
<path d="M242.974 294.913V304.767L221.909 325.842H212.054L242.974 294.913Z" fill="#455A64"/>
<path d="M203.757 272.763L189.905 286.616V276.761L193.893 272.763H203.757Z" fill="#455A64"/>
<path d="M233.37 272.763L189.905 316.239V311.317L228.448 272.763H233.37Z" fill="#455A64"/>
<path d="M242.974 309.89V314.823L231.954 325.842H227.022L242.974 309.89Z" fill="#455A64"/>
<path d="M242.974 277.695V278.589L195.741 325.842H194.817L242.974 277.695Z" fill="#455A64"/>
<path d="M209.503 272.763L189.905 292.361V291.447L208.589 272.763H209.503Z" fill="#455A64"/>
<path d="M226.218 272.763L189.905 309.077V308.153L225.294 272.763H226.218Z" fill="#455A64"/>
</g>
<path d="M218.152 272.763H214.736V325.842H218.152V272.763Z" fill="#455A64"/>
<path d="M189.985 155.224H168.087V189.167H189.985V155.224Z" fill="#455A64"/>
<path d="M187.735 157.715H170.347V186.686H187.735V157.715Z" fill="#37474F"/>
<path d="M193.119 189.167H164.952V194.049H193.119V189.167Z" fill="#FFC727"/>
<g opacity="0.5">
<path d="M187.735 157.715V161.292L170.337 178.69V172.07L184.701 157.715H187.735Z" fill="#455A64"/>
<path d="M187.735 179.192V182.497L183.546 186.686H180.241L187.735 179.192Z" fill="#455A64"/>
<path d="M176.193 157.715L170.337 163.572V160.257L172.878 157.715H176.193Z" fill="#455A64"/>
<path d="M187.735 174.009V175.074L176.113 186.686H175.048L187.735 174.009Z" fill="#455A64"/>
</g>
<path d="M189.985 174.752H168.087V177.233H189.985V174.752Z" fill="#455A64"/>
<path d="M227.353 155.224H205.455V189.167H227.353V155.224Z" fill="#455A64"/>
<path d="M225.103 157.715H207.715V186.686H225.103V157.715Z" fill="#37474F"/>
<path d="M230.487 189.167H202.321V194.049H230.487V189.167Z" fill="#FFC727"/>
<g opacity="0.5">
<path d="M225.103 157.715V161.292L207.705 178.69V172.07L222.07 157.715H225.103Z" fill="#455A64"/>
<path d="M225.103 179.192V182.497L220.914 186.686H217.599L225.103 179.192Z" fill="#455A64"/>
<path d="M213.561 157.715L207.705 163.572V160.257L210.246 157.715H213.561Z" fill="#455A64"/>
<path d="M225.103 174.009V175.074L213.481 186.686H212.416L225.103 174.009Z" fill="#455A64"/>
</g>
<path d="M227.353 174.752H205.455V177.233H227.353V174.752Z" fill="#455A64"/>
<path d="M264.721 155.224H242.823V189.167H264.721V155.224Z" fill="#455A64"/>
<path d="M262.471 157.715H245.083V186.686H262.471V157.715Z" fill="#37474F"/>
<path d="M267.856 189.167H239.689V194.049H267.856V189.167Z" fill="#FFC727"/>
<g opacity="0.5">
<path d="M262.471 157.715V161.292L245.073 178.69V172.07L259.438 157.715H262.471Z" fill="#455A64"/>
<path d="M262.471 179.192V182.497L258.282 186.686H254.978L262.471 179.192Z" fill="#455A64"/>
<path d="M250.929 157.715L245.073 163.572V160.257L247.614 157.715H250.929Z" fill="#455A64"/>
<path d="M262.471 174.009V175.074L250.849 186.686H249.784L262.471 174.009Z" fill="#455A64"/>
</g>
<path d="M264.721 174.752H242.823V177.233H264.721V174.752Z" fill="#455A64"/>
<path d="M189.985 206.485H168.087V240.428H189.985V206.485Z" fill="#455A64"/>
<path d="M187.735 208.966H170.347V237.936H187.735V208.966Z" fill="#37474F"/>
<path d="M193.119 240.428H164.952V245.31H193.119V240.428Z" fill="#FFC727"/>
<g opacity="0.5">
<path d="M187.735 208.966V212.552L170.337 229.94V223.331L184.701 208.966H187.735Z" fill="#455A64"/>
<path d="M187.735 230.443V233.758L183.546 237.947H180.241L187.735 230.443Z" fill="#455A64"/>
<path d="M176.193 208.966L170.337 214.822V211.518L172.878 208.966H176.193Z" fill="#455A64"/>
<path d="M187.735 225.259V226.324L176.113 237.947H175.048L187.735 225.259Z" fill="#455A64"/>
</g>
<path d="M189.985 226.013H168.087V228.494H189.985V226.013Z" fill="#455A64"/>
<path d="M227.353 206.485H205.455V240.428H227.353V206.485Z" fill="#455A64"/>
<path d="M225.103 208.966H207.715V237.936H225.103V208.966Z" fill="#37474F"/>
<path d="M230.487 240.428H202.321V245.31H230.487V240.428Z" fill="#FFC727"/>
<g opacity="0.5">
<path d="M225.103 208.966V212.552L207.705 229.94V223.331L222.07 208.966H225.103Z" fill="#455A64"/>
<path d="M225.103 230.443V233.758L220.914 237.947H217.599L225.103 230.443Z" fill="#455A64"/>
<path d="M213.561 208.966L207.705 214.822V211.518L210.246 208.966H213.561Z" fill="#455A64"/>
<path d="M225.103 225.259V226.324L213.481 237.947H212.416L225.103 225.259Z" fill="#455A64"/>
</g>
<path d="M227.353 226.013H205.455V228.494H227.353V226.013Z" fill="#455A64"/>
<path d="M264.721 206.485H242.823V240.428H264.721V206.485Z" fill="#455A64"/>
<path d="M262.471 208.966H245.083V237.936H262.471V208.966Z" fill="#37474F"/>
<path d="M267.856 240.428H239.689V245.31H267.856V240.428Z" fill="#FFC727"/>
<g opacity="0.5">
<path d="M262.471 208.966V212.552L245.073 229.94V223.331L259.438 208.966H262.471Z" fill="#455A64"/>
<path d="M262.471 230.443V233.758L258.282 237.947H254.978L262.471 230.443Z" fill="#455A64"/>
<path d="M250.929 208.966L245.073 214.822V211.518L247.614 208.966H250.929Z" fill="#455A64"/>
<path d="M262.471 225.259V226.324L250.849 237.947H249.784L262.471 225.259Z" fill="#455A64"/>
</g>
<path d="M264.721 226.013H242.823V228.494H264.721V226.013Z" fill="#455A64"/>
<path opacity="0.5" d="M286.64 253.316H146.168V255.033L286.64 254.17V253.316Z" fill="#FFC727"/>
<path d="M286.64 250.925H146.168V253.316H286.64V250.925Z" fill="white"/>
<path opacity="0.5" d="M286.64 200.498H146.168V202.226L286.64 201.362V200.498Z" fill="#FFC727"/>
<path d="M286.64 198.107H146.168V200.498H286.64V198.107Z" fill="white"/>
<path opacity="0.5" d="M286.64 147.69H146.168V149.418L286.64 148.554V147.69Z" fill="#FFC727"/>
<path d="M286.64 145.3H146.168V147.69H286.64V145.3Z" fill="white"/>
<path d="M146.168 133.848H140.141V329.85H146.168V133.848Z" fill="#FFC727"/>
<path opacity="0.8" d="M146.168 133.848H140.141V329.85H146.168V133.848Z" fill="white"/>
<path d="M292.667 133.848H286.64V329.85H292.667V133.848Z" fill="#FFC727"/>
<path opacity="0.8" d="M292.667 133.848H286.64V329.85H292.667V133.848Z" fill="white"/>
<path d="M262.301 268.534H257.117V325.842H262.301V268.534Z" fill="#FFC727"/>
<path opacity="0.9" d="M262.301 268.534H257.117V325.842H262.301V268.534Z" fill="white"/>
<path d="M175.691 268.534H170.507V325.842H175.691V268.534Z" fill="#FFC727"/>
<path opacity="0.9" d="M175.691 268.534H170.507V325.842H175.691V268.534Z" fill="white"/>
<path d="M272.386 327.861H160.412V329.88H272.386V327.861Z" fill="#EBEBEB"/>
<path d="M266.931 325.842H165.877V327.861H266.931V325.842Z" fill="#EBEBEB"/>
<path d="M266.931 327.349L165.877 326.847V327.861H266.931V327.349Z" fill="#DBDBDB"/>
<path d="M140.151 188.152H15.1281V329.86H140.151V188.152Z" fill="#FFC727"/>
<path opacity="0.7" d="M140.151 188.152H15.1281V329.86H140.151V188.152Z" fill="white"/>
<path opacity="0.5" d="M140.151 308.434H15.1281V329.86H140.151V308.434Z" fill="#FFC727"/>
<path d="M51.2105 206.244H29.3119V240.187H51.2105V206.244Z" fill="#455A64"/>
<path d="M48.9604 208.725H31.5721V237.695H48.9604V208.725Z" fill="#37474F"/>
<path d="M54.3446 240.187H26.1778V245.069H54.3446V240.187Z" fill="#FFC727"/>
<g opacity="0.5">
<path d="M48.9604 208.735V212.311L31.5721 229.709V223.09L45.9267 208.735H48.9604Z" fill="#455A64"/>
<path d="M48.9604 230.212V233.517L44.7715 237.705H41.4666L48.9604 230.212Z" fill="#455A64"/>
<path d="M37.4285 208.735L31.5721 214.591V211.276L34.1035 208.735H37.4285Z" fill="#455A64"/>
<path d="M48.9604 225.028V226.083L37.3481 237.705H36.2833L48.9604 225.028Z" fill="#455A64"/>
</g>
<path d="M51.2105 225.772H29.3119V228.253H51.2105V225.772Z" fill="#455A64"/>
<path d="M88.5787 206.244H66.6801V240.187H88.5787V206.244Z" fill="#455A64"/>
<path d="M86.3286 208.725H68.9403V237.695H86.3286V208.725Z" fill="#37474F"/>
<path d="M91.7128 240.187H63.546V245.069H91.7128V240.187Z" fill="#FFC727"/>
<g opacity="0.5">
<path d="M86.3286 208.735V212.311L68.9403 229.709V223.09L83.2949 208.735H86.3286Z" fill="#455A64"/>
<path d="M86.3286 230.212V233.517L82.1397 237.705H78.8348L86.3286 230.212Z" fill="#455A64"/>
<path d="M74.7967 208.735L68.9403 214.591V211.276L71.4717 208.735H74.7967Z" fill="#455A64"/>
<path d="M86.3286 225.028V226.083L74.7062 237.705H73.6515L86.3286 225.028Z" fill="#455A64"/>
</g>
<path d="M88.5787 225.772H66.6801V228.253H88.5787V225.772Z" fill="#455A64"/>
<path d="M125.947 206.244H104.048V240.187H125.947V206.244Z" fill="#455A64"/>
<path d="M123.697 208.725H106.308V237.695H123.697V208.725Z" fill="#37474F"/>
<path d="M129.081 240.187H100.914V245.069H129.081V240.187Z" fill="#FFC727"/>
<g opacity="0.5">
<path d="M123.697 208.735V212.311L106.308 229.709V223.09L120.663 208.735H123.697Z" fill="#455A64"/>
<path d="M123.697 230.212V233.517L119.508 237.705H116.203L123.697 230.212Z" fill="#455A64"/>
<path d="M112.165 208.735L106.308 214.591V211.276L108.85 208.735H112.165Z" fill="#455A64"/>
<path d="M123.697 225.028V226.083L112.084 237.705H111.02L123.697 225.028Z" fill="#455A64"/>
</g>
<path d="M125.947 225.772H104.048V228.253H125.947V225.772Z" fill="#455A64"/>
<path d="M51.2105 257.494H29.3119V291.437H51.2105V257.494Z" fill="#455A64"/>
<path d="M48.9604 259.986H31.5721V288.956H48.9604V259.986Z" fill="#37474F"/>
<path d="M54.3446 291.447H26.1778V296.329H54.3446V291.447Z" fill="#FFC727"/>
<g opacity="0.5">
<path d="M48.9604 259.986V263.572L31.5721 280.96V274.35L45.9267 259.986H48.9604Z" fill="#455A64"/>
<path d="M48.9604 281.462V284.777L44.7715 288.956H41.4666L48.9604 281.462Z" fill="#455A64"/>
<path d="M37.4285 259.986L31.5721 265.842V262.537L34.1035 259.986H37.4285Z" fill="#455A64"/>
<path d="M48.9604 276.279V277.344L37.3481 288.956H36.2833L48.9604 276.279Z" fill="#455A64"/>
</g>
<path d="M51.2105 277.022H29.3119V279.504H51.2105V277.022Z" fill="#455A64"/>
<path d="M88.5787 257.494H66.6801V291.437H88.5787V257.494Z" fill="#455A64"/>
<path d="M86.3286 259.986H68.9403V288.956H86.3286V259.986Z" fill="#37474F"/>
<path d="M91.7128 291.447H63.546V296.329H91.7128V291.447Z" fill="#FFC727"/>
<g opacity="0.5">
<path d="M86.3286 259.986V263.572L68.9403 280.96V274.35L83.2949 259.986H86.3286Z" fill="#455A64"/>
<path d="M86.3286 281.462V284.777L82.1397 288.956H78.8348L86.3286 281.462Z" fill="#455A64"/>
<path d="M74.7967 259.986L68.9403 265.842V262.537L71.4717 259.986H74.7967Z" fill="#455A64"/>
<path d="M86.3286 276.279V277.344L74.7062 288.956H73.6515L86.3286 276.279Z" fill="#455A64"/>
</g>
<path d="M88.5787 277.022H66.6801V279.504H88.5787V277.022Z" fill="#455A64"/>
<path d="M125.947 257.494H104.048V291.437H125.947V257.494Z" fill="#455A64"/>
<path d="M123.697 259.986H106.308V288.956H123.697V259.986Z" fill="#37474F"/>
<path d="M129.081 291.447H100.914V296.329H129.081V291.447Z" fill="#FFC727"/>
<g opacity="0.5">
<path d="M123.697 259.986V263.572L106.308 280.96V274.35L120.663 259.986H123.697Z" fill="#455A64"/>
<path d="M123.697 281.462V284.777L119.508 288.956H116.203L123.697 281.462Z" fill="#455A64"/>
<path d="M112.165 259.986L106.308 265.842V262.537L108.85 259.986H112.165Z" fill="#455A64"/>
<path d="M123.697 276.279V277.344L112.084 288.956H111.02L123.697 276.279Z" fill="#455A64"/>
</g>
<path d="M125.947 277.022H104.048V279.504H125.947V277.022Z" fill="#455A64"/>
<path d="M140.141 181.091H10.8589V188.152H140.141V181.091Z" fill="#FFC727"/>
<path opacity="0.5" d="M140.141 251.718H15.1281V253.436L140.141 252.572V251.718Z" fill="#FFC727"/>
<path d="M140.151 249.328H15.1281V251.718H140.151V249.328Z" fill="white"/>
<path opacity="0.5" d="M130.969 188.152H140.141V329.86H137.197L130.969 188.152Z" fill="#FFC727"/>
<path d="M292.657 329.86H417.68V188.152L292.657 188.152V329.86Z" fill="#FFC727"/>
<path opacity="0.7" d="M292.657 329.86H417.68V188.152L292.657 188.152V329.86Z" fill="white"/>
<path d="M328.75 206.244H306.851V240.187H328.75V206.244Z" fill="#455A64"/>
<path d="M326.5 208.725H309.111V237.695H326.5V208.725Z" fill="#37474F"/>
<path d="M331.884 240.187H303.717V245.069H331.884V240.187Z" fill="#FFC727"/>
<g opacity="0.5">
<path d="M326.5 208.735V212.311L309.111 229.709V223.09L323.466 208.735H326.5Z" fill="#455A64"/>
<path d="M326.5 230.212V233.517L322.311 237.705H319.006L326.5 230.212Z" fill="#455A64"/>
<path d="M314.968 208.735L309.111 214.591V211.276L311.653 208.735H314.968Z" fill="#455A64"/>
<path d="M326.5 225.028V226.083L314.887 237.705H313.822L326.5 225.028Z" fill="#455A64"/>
</g>
<path d="M328.75 225.772H306.851V228.253H328.75V225.772Z" fill="#455A64"/>
<path d="M366.118 206.244H344.219V240.187H366.118V206.244Z" fill="#455A64"/>
<path d="M363.868 208.725H346.479V237.695H363.868V208.725Z" fill="#37474F"/>
<path d="M369.252 240.187H341.085V245.069H369.252V240.187Z" fill="#FFC727"/>
<g opacity="0.5">
<path d="M363.868 208.735V212.311L346.479 229.709V223.09L360.834 208.735H363.868Z" fill="#455A64"/>
<path d="M363.868 230.212V233.517L359.679 237.705H356.374L363.868 230.212Z" fill="#455A64"/>
<path d="M352.336 208.735L346.479 214.591V211.276L349.021 208.735H352.336Z" fill="#455A64"/>
<path d="M363.868 225.028V226.083L352.255 237.705H351.191L363.868 225.028Z" fill="#455A64"/>
</g>
<path d="M366.118 225.772H344.219V228.253H366.118V225.772Z" fill="#455A64"/>
<path d="M403.486 206.244H381.587V240.187H403.486V206.244Z" fill="#455A64"/>
<path d="M401.236 208.725H383.848V237.695H401.236V208.725Z" fill="#37474F"/>
<path d="M406.62 240.187H378.453V245.069H406.62V240.187Z" fill="#FFC727"/>
<g opacity="0.5">
<path d="M401.236 208.735V212.311L383.848 229.709V223.09L398.202 208.735H401.236Z" fill="#455A64"/>
<path d="M401.236 230.212V233.517L397.047 237.705H393.742L401.236 230.212Z" fill="#455A64"/>
<path d="M389.704 208.735L383.848 214.591V211.276L386.389 208.735H389.704Z" fill="#455A64"/>
<path d="M401.236 225.028V226.083L389.624 237.705H388.559L401.236 225.028Z" fill="#455A64"/>
</g>
<path d="M403.486 225.772H381.587V228.253H403.486V225.772Z" fill="#455A64"/>
<path d="M328.75 257.494H306.851V291.437H328.75V257.494Z" fill="#455A64"/>
<path d="M326.5 259.986H309.111V288.956H326.5V259.986Z" fill="#37474F"/>
<path d="M331.884 291.447H303.717V296.329H331.884V291.447Z" fill="#FFC727"/>
<g opacity="0.5">
<path d="M326.5 259.986V263.572L309.111 280.96V274.35L323.466 259.986H326.5Z" fill="#455A64"/>
<path d="M326.5 281.462V284.777L322.311 288.956H319.006L326.5 281.462Z" fill="#455A64"/>
<path d="M314.968 259.986L309.111 265.842V262.537L311.653 259.986H314.968Z" fill="#455A64"/>
<path d="M326.5 276.279V277.344L314.887 288.956H313.822L326.5 276.279Z" fill="#455A64"/>
</g>
<path d="M328.75 277.022H306.851V279.504H328.75V277.022Z" fill="#455A64"/>
<path d="M366.118 257.494H344.219V291.437H366.118V257.494Z" fill="#455A64"/>
<path d="M363.868 259.986H346.479V288.956H363.868V259.986Z" fill="#37474F"/>
<path d="M369.252 291.447H341.085V296.329H369.252V291.447Z" fill="#FFC727"/>
<g opacity="0.5">
<path d="M363.868 259.986V263.572L346.479 280.96V274.35L360.834 259.986H363.868Z" fill="#455A64"/>
<path d="M363.868 281.462V284.777L359.679 288.956H356.374L363.868 281.462Z" fill="#455A64"/>
<path d="M352.336 259.986L346.479 265.842V262.537L349.021 259.986H352.336Z" fill="#455A64"/>
<path d="M363.868 276.279V277.344L352.255 288.956H351.191L363.868 276.279Z" fill="#455A64"/>
</g>
<path d="M366.118 277.022H344.219V279.504H366.118V277.022Z" fill="#455A64"/>
<path d="M403.486 257.494H381.587V291.437H403.486V257.494Z" fill="#455A64"/>
<path d="M401.236 259.986H383.848V288.956H401.236V259.986Z" fill="#37474F"/>
<path d="M406.62 291.447H378.453V296.329H406.62V291.447Z" fill="#FFC727"/>
<g opacity="0.5">
<path d="M401.236 259.986V263.572L383.848 280.96V274.35L398.202 259.986H401.236Z" fill="#455A64"/>
<path d="M401.236 281.462V284.777L397.047 288.956H393.742L401.236 281.462Z" fill="#455A64"/>
<path d="M389.704 259.986L383.848 265.842V262.537L386.389 259.986H389.704Z" fill="#455A64"/>
<path d="M401.236 276.279V277.344L389.624 288.956H388.559L401.236 276.279Z" fill="#455A64"/>
</g>
<path d="M403.486 277.022H381.587V279.504H403.486V277.022Z" fill="#455A64"/>
<path d="M292.667 188.152L421.949 188.152V181.091L292.667 181.091V188.152Z" fill="#FFC727"/>
<path opacity="0.5" d="M417.69 308.434H292.667V329.86H417.69V308.434Z" fill="#FFC727"/>
<path opacity="0.5" d="M417.68 251.718H292.667V253.436L417.68 252.572V251.718Z" fill="#FFC727"/>
<path d="M417.69 249.328H292.667V251.718H417.69V249.328Z" fill="white"/>
<path opacity="0.5" d="M301.839 188.152H292.667V329.86H295.611L301.839 188.152Z" fill="#FFC727"/>
<path d="M275.018 114.21H157.8V137.042H275.018V114.21Z" fill="#FFC727"/>
<path d="M275.008 134.3H157.79V134.802H275.008V134.3Z" fill="white"/>
<path d="M275.008 116.45H157.79V116.952H275.008V116.45Z" fill="white"/>
<path d="M169.312 129.739V121.804C169.333 121.62 169.421 121.451 169.559 121.328C169.697 121.205 169.876 121.137 170.06 121.137C170.245 121.137 170.424 121.205 170.562 121.328C170.699 121.451 170.787 121.62 170.809 121.804V125.038H174.305V121.804C174.303 121.706 174.321 121.609 174.358 121.518C174.395 121.427 174.45 121.344 174.519 121.275C174.589 121.206 174.671 121.151 174.762 121.114C174.853 121.077 174.95 121.059 175.048 121.06C175.246 121.06 175.436 121.138 175.577 121.278C175.718 121.417 175.799 121.606 175.801 121.804V129.76C175.801 129.858 175.782 129.956 175.744 130.046C175.706 130.137 175.65 130.22 175.58 130.289C175.51 130.358 175.427 130.412 175.335 130.449C175.244 130.486 175.146 130.504 175.048 130.503C174.95 130.504 174.853 130.486 174.762 130.449C174.671 130.412 174.589 130.358 174.519 130.288C174.45 130.219 174.395 130.136 174.358 130.046C174.321 129.955 174.303 129.858 174.305 129.76V126.525H170.809V129.76C170.787 129.943 170.699 130.112 170.562 130.235C170.424 130.358 170.245 130.426 170.06 130.426C169.876 130.426 169.697 130.358 169.559 130.235C169.421 130.112 169.333 129.943 169.312 129.76V129.739Z" fill="white"/>
<path d="M178.303 121.804C178.301 121.706 178.319 121.609 178.356 121.518C178.393 121.427 178.448 121.344 178.517 121.275C178.587 121.206 178.669 121.151 178.76 121.114C178.851 121.077 178.948 121.059 179.046 121.06C179.244 121.06 179.434 121.138 179.575 121.278C179.716 121.417 179.797 121.606 179.799 121.804V129.76C179.797 129.958 179.716 130.147 179.575 130.286C179.434 130.425 179.244 130.503 179.046 130.503C178.948 130.504 178.851 130.486 178.76 130.449C178.669 130.412 178.587 130.358 178.517 130.288C178.448 130.219 178.393 130.136 178.356 130.046C178.319 129.955 178.301 129.858 178.303 129.76V121.804Z" fill="white"/>
<path d="M181.899 125.641C181.905 124.991 182.041 124.348 182.297 123.751C182.554 123.153 182.927 122.613 183.394 122.161C183.861 121.708 184.414 121.353 185.019 121.116C185.625 120.879 186.271 120.765 186.921 120.779C188.029 120.761 189.111 121.115 189.995 121.784C190.087 121.841 190.165 121.917 190.226 122.007C190.286 122.096 190.327 122.198 190.346 122.304C190.365 122.411 190.361 122.52 190.335 122.625C190.309 122.73 190.261 122.828 190.195 122.914C190.129 122.999 190.045 123.069 189.95 123.121C189.855 123.172 189.75 123.202 189.642 123.21C189.534 123.218 189.426 123.204 189.324 123.167C189.222 123.131 189.129 123.074 189.051 122.999C188.439 122.533 187.691 122.279 186.921 122.276C186.469 122.27 186.021 122.357 185.603 122.529C185.185 122.702 184.807 122.957 184.49 123.28C184.17 123.578 183.915 123.939 183.741 124.34C183.566 124.741 183.476 125.174 183.476 125.611C183.476 126.048 183.566 126.481 183.741 126.882C183.915 127.283 184.17 127.643 184.49 127.941C184.807 128.264 185.185 128.52 185.603 128.693C186.021 128.865 186.469 128.951 186.921 128.946C187.572 128.939 188.209 128.763 188.77 128.434V126.585H186.841C186.638 126.585 186.442 126.505 186.298 126.362C186.153 126.219 186.07 126.025 186.067 125.822C186.067 125.721 186.088 125.621 186.127 125.527C186.166 125.434 186.223 125.349 186.295 125.278C186.367 125.207 186.452 125.151 186.546 125.114C186.639 125.076 186.74 125.057 186.841 125.058H189.523C189.625 125.056 189.726 125.074 189.821 125.111C189.916 125.148 190.003 125.204 190.076 125.275C190.149 125.346 190.207 125.431 190.247 125.525C190.286 125.619 190.307 125.72 190.307 125.822V128.835C190.313 128.912 190.313 128.99 190.307 129.066C190.303 129.09 190.303 129.114 190.307 129.137C190.26 129.271 190.168 129.385 190.045 129.458C189.315 130.008 188.448 130.347 187.539 130.44C186.63 130.534 185.712 130.377 184.886 129.987C184.059 129.598 183.354 128.99 182.847 128.229C182.34 127.469 182.051 126.584 182.009 125.671L181.899 125.641Z" fill="white"/>
<path d="M192.697 129.739V121.804C192.696 121.706 192.714 121.609 192.751 121.518C192.788 121.427 192.843 121.344 192.912 121.275C192.981 121.206 193.064 121.151 193.155 121.114C193.245 121.077 193.343 121.059 193.441 121.06C193.639 121.06 193.829 121.138 193.97 121.278C194.111 121.417 194.191 121.606 194.194 121.804V125.038H197.68V121.804C197.701 121.62 197.789 121.451 197.927 121.328C198.065 121.205 198.243 121.137 198.428 121.137C198.613 121.137 198.791 121.205 198.929 121.328C199.067 121.451 199.155 121.62 199.176 121.804V129.76C199.155 129.943 199.067 130.112 198.929 130.235C198.791 130.358 198.613 130.426 198.428 130.426C198.243 130.426 198.065 130.358 197.927 130.235C197.789 130.112 197.701 129.943 197.68 129.76V126.525H194.194V129.76C194.194 129.858 194.174 129.956 194.137 130.046C194.099 130.137 194.043 130.22 193.973 130.289C193.903 130.358 193.82 130.412 193.728 130.449C193.637 130.486 193.539 130.504 193.441 130.503C193.341 130.504 193.242 130.485 193.15 130.447C193.058 130.409 192.974 130.353 192.905 130.281C192.835 130.21 192.781 130.125 192.745 130.032C192.709 129.939 192.693 129.839 192.697 129.739Z" fill="white"/>
<path d="M206.007 128.132C206.128 127.987 206.302 127.896 206.491 127.879C206.679 127.862 206.867 127.921 207.012 128.042C207.741 128.648 208.647 129 209.593 129.046C210.192 129.054 210.78 128.882 211.281 128.554C211.452 128.447 211.594 128.3 211.694 128.124C211.794 127.949 211.849 127.751 211.854 127.55C211.855 127.397 211.813 127.247 211.733 127.118C211.631 126.955 211.494 126.818 211.331 126.716C210.759 126.394 210.132 126.179 209.483 126.083C208.883 125.983 208.298 125.804 207.745 125.551C207.24 125.341 206.805 124.993 206.489 124.546C206.284 124.214 206.176 123.831 206.178 123.441C206.184 123.044 206.286 122.654 206.474 122.304C206.663 121.954 206.934 121.655 207.263 121.432C207.945 120.955 208.761 120.706 209.593 120.719C210.66 120.774 211.685 121.149 212.537 121.794C212.612 121.844 212.676 121.909 212.725 121.984C212.775 122.06 212.809 122.144 212.826 122.233C212.843 122.322 212.842 122.413 212.823 122.501C212.805 122.59 212.769 122.674 212.717 122.748C212.669 122.826 212.606 122.893 212.532 122.945C212.457 122.998 212.373 123.034 212.283 123.053C212.194 123.072 212.102 123.072 212.013 123.054C211.923 123.037 211.838 123.001 211.763 122.949C211.144 122.448 210.387 122.147 209.593 122.085C209.055 122.077 208.528 122.239 208.087 122.547C207.934 122.633 207.807 122.756 207.717 122.906C207.627 123.056 207.578 123.226 207.574 123.401C207.563 123.531 207.595 123.662 207.665 123.773C207.762 123.912 207.885 124.031 208.026 124.124C208.545 124.429 209.118 124.63 209.714 124.717C210.354 124.832 210.978 125.024 211.572 125.289C212.121 125.52 212.59 125.908 212.918 126.404C213.132 126.749 213.246 127.145 213.25 127.55C213.236 127.966 213.123 128.372 212.92 128.736C212.718 129.099 212.431 129.409 212.085 129.639C211.358 130.156 210.485 130.427 209.593 130.413C208.325 130.348 207.112 129.872 206.138 129.056C206.012 128.942 205.93 128.786 205.906 128.618C205.883 128.449 205.918 128.278 206.007 128.132Z" fill="white"/>
<path d="M214.887 125.631C214.911 124.334 215.443 123.099 216.37 122.191C217.296 121.283 218.542 120.776 219.839 120.779C220.96 120.757 222.057 121.111 222.953 121.784C223.108 121.915 223.207 122.099 223.232 122.301C223.256 122.502 223.203 122.705 223.084 122.869C222.958 123.026 222.775 123.129 222.575 123.155C222.375 123.181 222.172 123.129 222.009 123.009C221.394 122.519 220.626 122.26 219.839 122.276C218.931 122.289 218.061 122.648 217.409 123.28C216.778 123.901 216.417 124.746 216.404 125.631C216.407 126.068 216.498 126.501 216.67 126.903C216.843 127.305 217.094 127.668 217.409 127.972C218.062 128.603 218.931 128.962 219.839 128.976C220.627 128.985 221.393 128.722 222.009 128.233C222.176 128.121 222.377 128.075 222.575 128.103C222.774 128.13 222.955 128.23 223.084 128.383C223.202 128.546 223.255 128.747 223.231 128.947C223.206 129.146 223.107 129.329 222.953 129.458C222.057 130.131 220.96 130.485 219.839 130.463C218.545 130.468 217.3 129.965 216.374 129.061C215.448 128.157 214.914 126.925 214.887 125.631Z" fill="white"/>
<path d="M225.706 129.739V121.804C225.705 121.706 225.723 121.609 225.76 121.518C225.797 121.427 225.851 121.344 225.921 121.275C225.99 121.206 226.072 121.151 226.163 121.114C226.254 121.077 226.351 121.059 226.449 121.06C226.548 121.059 226.645 121.077 226.737 121.114C226.828 121.151 226.911 121.205 226.981 121.275C227.051 121.344 227.107 121.426 227.145 121.517C227.183 121.608 227.203 121.705 227.203 121.804V125.038H230.698V121.804C230.697 121.706 230.715 121.609 230.752 121.518C230.789 121.427 230.844 121.344 230.913 121.275C230.982 121.206 231.065 121.151 231.156 121.114C231.246 121.077 231.344 121.059 231.442 121.06C231.64 121.06 231.83 121.138 231.971 121.278C232.112 121.417 232.192 121.606 232.195 121.804V129.76C232.195 129.858 232.176 129.956 232.138 130.046C232.1 130.137 232.044 130.22 231.974 130.289C231.904 130.358 231.821 130.412 231.729 130.449C231.638 130.486 231.54 130.504 231.442 130.503C231.344 130.504 231.246 130.486 231.156 130.449C231.065 130.412 230.982 130.358 230.913 130.288C230.844 130.219 230.789 130.136 230.752 130.046C230.715 129.955 230.697 129.858 230.698 129.76V126.525H227.203V129.76C227.204 129.858 227.185 129.957 227.148 130.048C227.11 130.14 227.055 130.222 226.984 130.292C226.914 130.361 226.83 130.416 226.738 130.452C226.646 130.488 226.548 130.506 226.449 130.503C226.349 130.504 226.251 130.485 226.158 130.447C226.066 130.409 225.983 130.353 225.913 130.281C225.844 130.21 225.789 130.125 225.754 130.032C225.718 129.939 225.702 129.839 225.706 129.739Z" fill="white"/>
<path d="M242.311 122.216C243.181 123.14 243.67 124.361 243.677 125.631C243.677 126.9 243.188 128.12 242.311 129.036C241.903 129.488 241.406 129.85 240.851 130.099C240.296 130.348 239.695 130.479 239.086 130.483C238.466 130.481 237.852 130.352 237.283 130.103C236.715 129.854 236.204 129.491 235.781 129.036C234.912 128.117 234.433 126.896 234.445 125.631C234.437 124.364 234.915 123.141 235.781 122.216C236.204 121.762 236.716 121.401 237.284 121.154C237.853 120.907 238.466 120.779 239.086 120.779C239.694 120.782 240.294 120.911 240.849 121.158C241.405 121.405 241.902 121.766 242.311 122.216ZM242.14 125.631C242.137 124.756 241.807 123.914 241.216 123.27C240.943 122.97 240.61 122.731 240.239 122.567C239.868 122.402 239.467 122.318 239.061 122.318C238.655 122.318 238.254 122.402 237.883 122.567C237.512 122.731 237.179 122.97 236.906 123.27C236.307 123.91 235.976 124.755 235.982 125.631C235.972 126.502 236.303 127.343 236.906 127.972C237.176 128.277 237.507 128.522 237.879 128.69C238.25 128.857 238.653 128.944 239.061 128.944C239.469 128.944 239.872 128.857 240.243 128.69C240.615 128.522 240.946 128.277 241.216 127.972C241.81 127.337 242.141 126.5 242.14 125.631Z" fill="white"/>
<path d="M253.642 122.216C254.512 123.14 255.001 124.361 255.008 125.631C255.008 126.9 254.519 128.12 253.642 129.036C253.234 129.488 252.737 129.85 252.182 130.099C251.627 130.348 251.026 130.479 250.417 130.483C249.798 130.48 249.186 130.35 248.62 130.102C248.053 129.853 247.543 129.49 247.122 129.036C246.25 128.119 245.77 126.897 245.786 125.631C245.774 124.363 246.253 123.139 247.122 122.216C247.544 121.763 248.054 121.402 248.62 121.155C249.187 120.908 249.799 120.78 250.417 120.779C251.025 120.782 251.625 120.911 252.18 121.158C252.736 121.405 253.233 121.766 253.642 122.216ZM253.471 125.631C253.472 124.758 253.146 123.915 252.557 123.27C252.283 122.97 251.949 122.73 251.577 122.566C251.205 122.402 250.803 122.317 250.397 122.317C249.99 122.317 249.588 122.402 249.217 122.566C248.845 122.73 248.511 122.97 248.237 123.27C247.645 123.913 247.318 124.757 247.323 125.631C247.314 126.5 247.642 127.339 248.237 127.972C248.508 128.277 248.84 128.522 249.213 128.69C249.585 128.858 249.989 128.945 250.397 128.945C250.805 128.945 251.209 128.858 251.581 128.69C251.954 128.522 252.286 128.277 252.557 127.972C253.149 127.336 253.476 126.499 253.471 125.631Z" fill="white"/>
<path d="M257.589 129.739V121.804C257.589 121.607 257.668 121.418 257.807 121.278C257.947 121.139 258.136 121.06 258.333 121.06C258.531 121.06 258.721 121.138 258.862 121.278C259.003 121.417 259.083 121.606 259.086 121.804V129.006H262.743C262.926 129.027 263.095 129.115 263.218 129.253C263.341 129.391 263.409 129.57 263.409 129.755C263.409 129.939 263.341 130.118 263.218 130.256C263.095 130.394 262.926 130.482 262.743 130.503H258.333C258.233 130.503 258.135 130.483 258.044 130.444C257.952 130.406 257.869 130.349 257.8 130.278C257.731 130.207 257.676 130.123 257.64 130.03C257.604 129.938 257.587 129.839 257.589 129.739Z" fill="white"/>
<g opacity="0.5">
<path d="M32.3054 300.046H24.1487V302.859H32.3054V300.046Z" fill="#FFC727"/>
<path d="M27.7549 306.415C25.3441 306.415 21.999 306.525 19.6083 306.525H19.5178V303.512H19.6484C22.0492 303.512 25.4345 303.512 27.7951 303.572H27.8654V303.622L27.7951 306.445L27.7549 306.415ZM27.7549 306.415L27.6947 303.622L27.7549 303.692C26.3988 303.692 25.0427 303.692 23.6866 303.692H19.6083L19.7288 303.562V306.385L19.6183 306.264C21.9588 306.264 25.3843 306.334 27.765 306.385L27.7549 306.415Z" fill="#FFC727"/>
<path d="M165.766 221.754C163.345 221.754 160 221.864 157.609 221.864H157.499V218.851H157.629C160.03 218.851 163.416 218.851 165.786 218.911H165.846V218.971L165.786 221.794L165.766 221.754ZM165.766 221.754L165.696 218.931L165.766 219.001C164.4 219.001 163.044 219.001 161.688 219.001H157.609L157.73 218.871V221.693L157.619 221.573C159.96 221.573 163.395 221.653 165.776 221.693L165.766 221.754Z" fill="#FFC727"/>
<path d="M161.216 222.487H153.059V225.3H161.216V222.487Z" fill="#FFC727"/>
<path d="M156.685 221.754C154.264 221.754 150.919 221.864 148.528 221.864H148.418V221.754V218.931V218.81H148.549C150.949 218.81 154.335 218.81 156.705 218.871H156.766V218.931L156.705 221.754H156.685ZM156.685 221.754L156.615 218.931L156.685 219.001C155.319 219.001 153.963 219.001 152.607 219.001H148.528L148.649 218.871V221.693L148.539 221.573C150.879 221.573 154.315 221.653 156.695 221.693L156.685 221.754Z" fill="#FFC727"/>
<path d="M409.152 201.362C406.731 201.362 403.386 201.482 400.995 201.472H400.884V198.459H401.015C403.416 198.459 406.801 198.459 409.172 198.529H409.232V198.589L409.172 201.402L409.152 201.362ZM409.152 201.362L409.081 198.549L409.152 198.609H405.073H400.995L401.115 198.489V201.302L401.005 201.191C403.345 201.191 406.781 201.261 409.162 201.302L409.152 201.362Z" fill="#FFC727"/>
<path d="M409.152 258.911C406.731 258.911 403.386 259.031 400.995 259.031H400.884V255.968H401.015C403.416 255.968 406.801 255.968 409.172 256.038H409.232V256.098L409.172 258.911H409.152ZM409.152 258.911L409.081 256.098L409.152 256.158L405.073 256.209H400.995L401.115 256.088V258.901L401.005 258.79C403.345 258.79 406.781 258.861 409.162 258.901L409.152 258.911Z" fill="#FFC727"/>
<path d="M413.642 194.983H405.485V197.796H413.642V194.983Z" fill="#FFC727"/>
<path d="M310.387 200.819H302.23V203.632H310.387V200.819Z" fill="#FFC727"/>
<path d="M310.417 305.681C307.996 305.681 304.651 305.802 302.26 305.792H302.15V305.681V302.869V302.738H302.281C304.681 302.738 308.067 302.738 310.437 302.798H310.498V302.869L310.437 305.681H310.417ZM310.417 305.681L310.347 302.869L310.417 302.929C309.051 302.929 307.695 302.929 306.339 302.929H302.26L302.381 302.808V305.621L302.271 305.501C304.611 305.501 308.046 305.581 310.427 305.621L310.417 305.681Z" fill="#FFC727"/>
<path d="M314.907 299.303H306.751V302.115H314.907V299.303Z" fill="#FFC727"/>
<path d="M404.581 197.806C402.17 197.806 398.825 197.926 396.434 197.916H396.314V194.903H396.444C398.845 194.903 402.23 194.903 404.591 194.963H404.661V195.023L404.591 197.836L404.581 197.806ZM404.581 197.806L404.521 194.993L404.581 195.053L400.513 195.104H396.434L396.555 194.983V197.796L396.444 197.685C398.785 197.685 402.21 197.756 404.591 197.796L404.581 197.806Z" fill="#FFC727"/>
<path d="M68.5787 227.419C66.1578 227.419 62.8127 227.54 60.422 227.54H60.3115V224.526H60.442C62.8428 224.526 66.2281 224.526 68.5988 224.586H68.659V224.647L68.5988 227.459L68.5787 227.419ZM68.5787 227.419L68.5184 224.606L68.5787 224.667L64.5003 224.717H60.422L60.5525 224.586V227.399L60.442 227.289C62.7826 227.289 66.218 227.359 68.5988 227.399L68.5787 227.419Z" fill="#FFC727"/>
<path d="M161.246 304.707C158.825 304.707 155.48 304.828 153.089 304.818H152.979V301.804H153.119C155.52 301.804 158.905 301.804 161.276 301.864H161.336V301.935L161.276 304.747L161.246 304.707ZM161.246 304.707L161.185 301.894L161.246 301.955L157.167 302.005H153.119L153.25 301.884V304.697L153.119 304.627C155.46 304.627 158.895 304.697 161.276 304.737L161.246 304.707Z" fill="#FFC727"/>
<path d="M59.4978 227.419C57.0769 227.419 53.7318 227.54 51.3411 227.54H51.2306V224.526H51.3511C53.7519 224.526 57.1372 224.526 59.5078 224.586H59.5681V224.647L59.5078 227.459L59.4978 227.419ZM59.4978 227.419L59.4375 224.606L59.4978 224.667L55.4194 224.717H51.3411L51.4717 224.586V227.399L51.3612 227.289C53.7017 227.289 57.1372 227.359 59.5179 227.399L59.4978 227.419Z" fill="#FFC727"/>
<path d="M277.268 275.887C274.857 275.887 271.502 275.998 269.121 275.998H269.001V272.984H269.131C271.532 272.984 274.907 272.984 277.278 273.044H277.348V273.105L277.278 275.927L277.268 275.887ZM277.268 275.887L277.208 273.065L277.268 273.135C275.912 273.135 274.556 273.135 273.19 273.135H269.172L269.292 273.004V275.827L269.182 275.706C271.522 275.706 274.948 275.787 277.328 275.827L277.268 275.887Z" fill="#FFC727"/>
<path d="M277.268 160.337C274.857 160.337 271.502 160.458 269.121 160.448H269.001V157.434H269.131C271.532 157.434 274.907 157.434 277.278 157.494H277.348V157.555L277.278 160.367L277.268 160.337ZM277.268 160.337L277.208 157.525L277.268 157.585H273.19H269.172L269.292 157.464V160.277L269.182 160.166C271.522 160.166 274.948 160.237 277.328 160.277L277.268 160.337Z" fill="#FFC727"/>
<path d="M281.818 161.071H273.662V163.883H281.818V161.071Z" fill="#FFC727"/>
<path d="M99.8796 192.643H91.7228V195.455H99.8796V192.643Z" fill="#FFC727"/>
</g>
<path d="M0 337.404C138.624 336.791 294.164 336.791 432.808 337.404C294.184 338.027 138.644 338.027 0 337.404Z" fill="#263238"/>
<path d="M0 420.579C138.624 419.966 294.164 419.956 432.808 420.579C294.184 421.201 138.644 421.191 0 420.579Z" fill="#263238"/>
<path d="M425.977 329.87H6.8207V337.173H425.977V329.87Z" fill="#C7C7C7"/>
<path d="M36.213 329.87C36.8692 332.26 36.8692 334.783 36.213 337.173C35.8599 335.991 35.6905 334.761 35.7107 333.527C35.6948 332.29 35.8641 331.057 36.213 329.87Z" fill="#263238"/>
<path d="M68.9704 329.87C69.3194 331.057 69.4887 332.29 69.4727 333.527C69.4929 334.761 69.3235 335.991 68.9704 337.173C68.3142 334.783 68.3142 332.26 68.9704 329.87Z" fill="#263238"/>
<path d="M101.738 329.87C102.394 332.26 102.394 334.783 101.738 337.173C101.385 335.991 101.215 334.761 101.236 333.527C101.22 332.29 101.389 331.057 101.738 329.87Z" fill="#263238"/>
<path d="M134.495 329.87C134.844 331.057 135.014 332.29 134.998 333.527C135.018 334.761 134.848 335.991 134.495 337.173C133.839 334.783 133.839 332.26 134.495 329.87Z" fill="#263238"/>
<path d="M167.263 329.87C167.919 332.26 167.919 334.783 167.263 337.173C166.91 335.991 166.74 334.761 166.761 333.527C166.745 332.29 166.914 331.057 167.263 329.87Z" fill="#263238"/>
<path d="M200.02 329.87C200.369 331.057 200.539 332.29 200.523 333.527C200.543 334.761 200.373 335.991 200.02 337.173C199.364 334.783 199.364 332.26 200.02 329.87Z" fill="#263238"/>
<path d="M232.788 329.87C233.444 332.26 233.444 334.783 232.788 337.173C232.435 335.991 232.265 334.761 232.285 333.527C232.269 332.29 232.439 331.057 232.788 329.87Z" fill="#263238"/>
<path d="M265.545 329.87C265.894 331.057 266.063 332.29 266.047 333.527C266.068 334.761 265.898 335.991 265.545 337.173C264.889 334.783 264.889 332.26 265.545 329.87Z" fill="#263238"/>
<path d="M298.313 329.87C298.969 332.26 298.969 334.783 298.313 337.173C297.96 335.991 297.79 334.761 297.81 333.527C297.794 332.29 297.964 331.057 298.313 329.87Z" fill="#263238"/>
<path d="M331.07 329.87C331.419 331.057 331.588 332.29 331.572 333.527C331.593 334.761 331.423 335.991 331.07 337.173C330.414 334.783 330.414 332.26 331.07 329.87Z" fill="#263238"/>
<path d="M363.838 329.87C364.494 332.26 364.494 334.783 363.838 337.173C363.484 335.991 363.315 334.761 363.335 333.527C363.319 332.29 363.489 331.057 363.838 329.87Z" fill="#263238"/>
<path d="M396.595 329.87C396.944 331.057 397.113 332.29 397.097 333.527C397.118 334.761 396.948 335.991 396.595 337.173C395.939 334.783 395.939 332.26 396.595 329.87Z" fill="#263238"/>
<path d="M186.399 337.404H246.409L359.789 420.579H73.089L186.399 337.404Z" fill="#EBEBEB"/>
<path d="M54.0935 329.87C54.0935 329.87 53.2497 325.933 51.5621 325.32C49.8745 324.707 48.8398 326.485 48.8398 326.485C48.8398 326.485 48.4481 322.708 46.0473 321.583C43.6465 320.458 41.8584 322.768 41.8584 322.768C41.8584 322.768 40.0201 317.987 36.7353 317.987C33.4506 317.987 31.8031 325.018 31.8031 325.018C31.8031 325.018 29.8644 322.939 27.8755 324.114C25.8865 325.29 25.8664 329.91 25.8664 329.91L54.0935 329.87Z" fill="#37474F"/>
<path d="M334.194 329.87C334.194 329.87 333.35 325.933 331.663 325.32C329.975 324.707 328.951 326.485 328.951 326.485C328.951 326.485 328.549 322.708 326.158 321.583C323.767 320.458 321.969 322.768 321.969 322.768C321.969 322.768 320.131 317.987 316.846 317.987C313.561 317.987 311.904 325.018 311.904 325.018C311.904 325.018 309.975 322.939 307.986 324.114C305.997 325.29 305.977 329.91 305.977 329.91L334.194 329.87Z" fill="#455A64"/>
<path d="M128.709 329.87H99.0257C99.0257 329.87 100.03 325.691 101.969 325.39C102.562 325.338 103.156 325.467 103.673 325.762C104.19 326.056 104.605 326.501 104.862 327.037C104.862 327.037 104.772 321.201 108.448 320.207C112.125 319.212 115.199 324.365 115.199 324.365C115.199 324.365 117.509 321.432 120.643 321.613C123.777 321.794 124.591 326.636 124.591 326.636C124.591 326.636 127.444 324.978 128.709 329.87Z" fill="#37474F"/>
<path d="M27.7147 329.87H12.0944C12.0944 329.87 12.0944 327.55 13.6615 326.927C14.0791 326.747 14.5439 326.708 14.9859 326.814C15.4279 326.921 15.8233 327.169 16.1125 327.52C16.1125 327.52 16.7353 323.24 19.5982 323.24C22.4611 323.24 23.8373 326.927 23.8373 326.927C24.0801 326.575 24.4207 326.302 24.817 326.141C25.2133 325.981 25.6479 325.939 26.0673 326.023C27.6545 326.234 27.7147 329.87 27.7147 329.87Z" fill="#455A64"/>
<path d="M140.964 329.87H125.344C125.344 329.87 125.344 327.55 126.911 326.927C127.329 326.747 127.794 326.708 128.236 326.814C128.678 326.921 129.073 327.169 129.362 327.52C129.362 327.52 129.995 323.24 132.858 323.24C135.721 323.24 137.047 326.927 137.047 326.927C137.29 326.575 137.63 326.302 138.027 326.141C138.423 325.981 138.857 325.939 139.277 326.023C140.904 326.234 140.964 329.87 140.964 329.87Z" fill="#455A64"/>
<path d="M397.921 329.87H382.301C382.301 329.87 382.301 327.55 383.868 326.927C384.285 326.747 384.75 326.708 385.192 326.814C385.634 326.921 386.03 327.169 386.319 327.52C386.319 327.52 386.942 323.24 389.804 323.24C392.667 323.24 394.044 326.927 394.044 326.927C394.285 326.574 394.626 326.3 395.022 326.139C395.419 325.979 395.854 325.938 396.274 326.023C397.861 326.234 397.921 329.87 397.921 329.87Z" fill="#455A64"/>
<path d="M420.714 329.87H394.958C394.958 329.87 395.018 326.043 397.549 325.018C398.238 324.729 399.001 324.671 399.726 324.852C400.45 325.033 401.096 325.444 401.567 326.023C401.567 326.023 402.572 318.991 407.323 318.991C412.075 318.991 414.295 325.018 414.295 325.018C414.695 324.438 415.256 323.986 415.909 323.721C416.563 323.455 417.279 323.385 417.971 323.522C420.613 323.863 420.714 329.87 420.714 329.87Z" fill="#37474F"/>
<path d="M353.18 170.453C353.682 171.226 401.296 177.856 403.637 177.414C403.751 177.39 403.862 177.352 403.968 177.304C406.901 176.249 421.045 165.5 422.14 164.586C424.149 162.899 413.23 130.734 403.667 111.296C400.472 104.817 394.988 99.0815 393.441 97.2332C391.894 95.3849 362.301 91.9695 356.766 93.8881C354.405 94.7118 348.358 99.8248 348.107 100.819C347.825 102.306 352.677 169.669 353.18 170.453Z" fill="#455A64"/>
<path d="M353.18 170.453C353.682 171.226 401.296 177.856 403.637 177.414C403.751 177.39 403.862 177.352 403.968 177.304C400.543 164.486 384.45 104.335 383.878 103.903C383.305 103.471 354.948 100.99 348.117 100.89C347.826 102.306 352.677 169.669 353.18 170.453Z" fill="#263238"/>
<path d="M377.67 98.1473C378.182 97.7455 379.106 91.2764 378.353 89.9002C377.509 88.3532 366.068 88.0117 365.294 89.187C364.521 90.3623 363.586 96.8213 363.908 97.0825C364.229 97.3437 366.098 97.7555 366.399 97.3638C366.7 96.972 367.173 91.5978 367.404 91.3366C367.635 91.0755 375.641 91.3366 375.882 91.7284C376.123 92.1202 374.938 97.5345 375.239 97.7555C375.54 97.9765 377.127 98.5391 377.67 98.1473Z" fill="#37474F"/>
<path d="M378.905 148.293C378.905 148.293 355.681 264.938 354.023 273.547C353.672 275.496 355.028 379.966 355.028 379.966H311.834C311.834 379.966 307.695 288.715 309.824 271.477C311.954 254.24 338.212 148.263 338.212 148.263L378.905 148.293Z" fill="#F7A9A0"/>
<path opacity="0.1" d="M378.915 148.293C378.915 148.293 367.615 205.069 360.211 242.316L338.112 148.293H378.915Z" fill="black"/>
<path d="M323.516 206.616L369.413 212.13L378.905 148.293H338.162L323.516 206.616Z" fill="#37474F"/>
<path d="M367.695 203.321C362.793 202.316 357.81 201.734 352.848 201.171C347.886 200.608 343.004 200.086 338.082 199.574C335.269 199.293 332.436 199.011 329.614 198.861C329.579 198.861 329.546 198.874 329.521 198.899C329.497 198.923 329.483 198.957 329.483 198.991C329.483 199.026 329.497 199.059 329.521 199.084C329.546 199.108 329.579 199.122 329.614 199.122C334.526 200.036 339.518 200.608 344.47 201.261C349.423 201.914 354.285 202.527 359.207 203.049C362.029 203.351 364.852 203.592 367.685 203.702C367.71 203.703 367.735 203.699 367.758 203.69C367.782 203.681 367.803 203.667 367.821 203.65C367.84 203.633 367.854 203.612 367.864 203.589C367.875 203.566 367.88 203.542 367.881 203.517C367.881 203.491 367.877 203.467 367.868 203.443C367.859 203.42 367.846 203.398 367.828 203.38C367.811 203.362 367.791 203.347 367.768 203.337C367.745 203.327 367.72 203.321 367.695 203.321Z" fill="#263238"/>
<path d="M372.557 152.02C369.155 164.235 365.904 176.5 362.803 188.815C362.361 190.533 361.949 192.271 361.527 193.999C361.051 195.762 360.669 197.549 360.382 199.353C360.382 199.374 360.39 199.395 360.406 199.41C360.421 199.425 360.441 199.433 360.462 199.433C360.484 199.433 360.504 199.425 360.519 199.41C360.534 199.395 360.543 199.374 360.543 199.353C361.599 196.322 362.494 193.237 363.225 190.111C364.049 187.098 364.832 184.004 365.626 180.94C367.203 174.822 368.78 168.695 370.267 162.547C371.11 159.051 371.951 155.546 372.788 152.03C372.828 151.939 372.607 151.869 372.557 152.02Z" fill="#263238"/>
<path d="M279.92 420.046C282.301 420.84 350.367 420.639 352.959 419.042C353.963 418.429 354.496 408.504 354.817 396.51C354.887 393.919 354.938 391.247 354.978 388.524C355.028 385.3 355.078 382.045 355.098 378.881C355.179 364.667 354.666 352.151 354.666 352.151H310.668V378.881V388.524L310.899 396.51C310.899 396.51 284.872 408.243 282.23 410.363C279.588 412.482 277.549 419.263 279.92 420.046Z" fill="#F7A9A0"/>
<path d="M279.92 420.046C282.301 420.84 350.367 420.639 352.959 419.042C353.963 418.429 354.496 408.504 354.817 396.51C354.887 393.919 354.938 391.246 354.978 388.524C355.028 385.3 355.078 382.045 355.098 378.881H310.688V388.524L310.919 396.51C310.919 396.51 284.892 408.243 282.25 410.363C279.608 412.482 277.549 419.263 279.92 420.046Z" fill="#DBDBDB"/>
<path d="M279.689 420.147C281.246 420.659 310.236 420.759 331.341 420.327C336.233 420.217 340.693 420.086 344.3 419.926C349.262 419.705 352.597 419.433 353.139 419.082C354.335 418.318 354.907 403.753 355.148 388.394H310.668L310.899 396.43C310.899 396.43 284.732 408.223 282.07 410.352C279.408 412.482 277.328 419.343 279.689 420.147Z" fill="#FFC727"/>
<path d="M280.693 417.404C292.175 417.093 338.473 416.902 349.835 417.465C349.925 417.465 349.925 417.535 349.835 417.535C338.473 418.097 292.175 417.907 280.693 417.595C280.442 417.585 280.442 417.414 280.693 417.404Z" fill="#263238"/>
<path d="M309.272 393.888C313.782 393.025 319.317 393.708 322.773 396.902C322.903 397.023 322.723 397.213 322.582 397.173C318.262 395.792 313.807 394.876 309.292 394.441C309.227 394.431 309.168 394.399 309.124 394.35C309.08 394.301 309.055 394.239 309.053 394.173C309.051 394.107 309.071 394.043 309.111 393.991C309.151 393.939 309.208 393.903 309.272 393.888Z" fill="#263238"/>
<path d="M306.017 395.857C310.538 395.003 316.063 395.676 319.518 398.871C319.649 399.001 319.518 399.192 319.327 399.142C315.007 397.763 310.552 396.851 306.037 396.42C305.975 396.405 305.919 396.371 305.878 396.321C305.837 396.272 305.814 396.21 305.811 396.146C305.809 396.082 305.828 396.019 305.865 395.967C305.903 395.915 305.956 395.876 306.017 395.857Z" fill="#263238"/>
<path d="M302.793 397.826C307.303 396.972 312.838 397.655 316.284 400.84C316.414 400.96 316.284 401.151 316.093 401.101C311.768 399.728 307.31 398.822 302.793 398.399C302.726 398.386 302.666 398.351 302.622 398.298C302.579 398.246 302.555 398.18 302.555 398.112C302.555 398.045 302.579 397.979 302.622 397.926C302.666 397.874 302.726 397.839 302.793 397.826Z" fill="#263238"/>
<path d="M299.518 399.805C304.028 398.951 309.563 399.624 313.009 402.819C313.139 402.949 313.009 403.13 312.818 403.09C308.502 401.707 304.05 400.795 299.538 400.368C299.476 400.353 299.42 400.319 299.379 400.269C299.338 400.22 299.314 400.158 299.312 400.094C299.31 400.03 299.329 399.967 299.366 399.915C299.403 399.862 299.457 399.824 299.518 399.805Z" fill="#263238"/>
<path d="M302.944 389.89C306.148 392.362 310.307 393.366 314.043 394.732C314.425 394.883 314.737 394.511 314.747 394.17C314.765 394.168 314.782 394.162 314.798 394.152C314.813 394.142 314.826 394.129 314.836 394.114C314.846 394.098 314.852 394.081 314.854 394.063C314.855 394.044 314.853 394.026 314.847 394.009C313.465 390.014 311.058 386.453 307.866 383.683C305.977 382.105 302.672 381.02 300.904 383.472C299.136 385.923 301.075 388.444 302.944 389.89ZM301.788 386.264C300.975 381.312 306.299 383.893 307.645 385.119C308.506 385.917 309.309 386.776 310.045 387.691C311.551 389.597 312.959 391.579 314.264 393.627C312.466 392.844 310.628 392.221 308.81 391.508C306.64 390.644 302.23 389.006 301.788 386.264Z" fill="#263238"/>
<path d="M329.915 387.088C328.81 384.275 325.344 384.506 323.114 385.561C319.335 387.445 316.117 390.289 313.782 393.808C313.722 393.888 313.782 393.959 313.843 393.999C313.815 394.083 313.808 394.173 313.823 394.26C313.837 394.348 313.873 394.431 313.926 394.501C313.979 394.572 314.049 394.629 314.129 394.668C314.208 394.706 314.296 394.725 314.385 394.722C318.343 394.32 322.612 394.391 326.329 392.793C328.489 391.859 330.919 389.75 329.915 387.088ZM320.261 392.894C318.313 393.135 316.374 393.276 314.445 393.597C316.217 391.938 318.071 390.369 320 388.896C320.96 388.194 321.967 387.56 323.014 386.997C324.621 386.154 330.427 384.988 328.398 389.569C327.243 392.1 322.562 392.603 320.251 392.894H320.261Z" fill="#263238"/>
<path opacity="0.1" d="M355.118 392.693C354.827 406.375 354.254 418.389 353.16 419.082C352.617 419.433 349.292 419.695 344.32 419.926C340.713 420.086 336.284 420.227 331.371 420.317C327.434 420.398 323.225 420.468 318.976 420.508L355.118 392.693Z" fill="black"/>
<path d="M366.58 374.541L410.94 373.979C410.94 373.979 402.24 222.587 398.433 191.116C398.433 191.116 405.636 174.039 392.155 148.283H338.122C338.122 148.283 341.738 172.803 347.936 188.353C347.936 188.353 351.954 189.428 359.247 193.456L366.58 374.541Z" fill="#F7A9A0"/>
<path d="M360.051 212.472H402.502L399.227 191.116C399.227 191.116 405.676 169.408 393.079 148.283H338.122C338.122 148.283 340.402 171.286 347.163 188.584L354.023 191.618L360.051 212.472Z" fill="#37474F"/>
<path d="M354.023 191.618C353.963 191.347 353.411 191.357 353.461 191.618C355.701 204.235 359.227 210.342 359.488 210.915C359.488 210.995 359.629 210.995 359.649 210.915C359.87 210.322 355.028 196.862 354.023 191.618Z" fill="#263238"/>
<path d="M345.887 187.7C350.754 189.474 355.46 191.666 359.95 194.25C359.984 194.27 360.009 194.302 360.021 194.34C360.033 194.377 360.03 194.418 360.014 194.454C359.998 194.49 359.969 194.518 359.934 194.534C359.898 194.551 359.857 194.553 359.819 194.541C355.078 192.532 350.246 190.523 345.626 188.263C345.558 188.224 345.508 188.161 345.485 188.087C345.462 188.013 345.467 187.933 345.5 187.862C345.532 187.792 345.59 187.736 345.662 187.706C345.733 187.676 345.814 187.674 345.887 187.7Z" fill="#263238"/>
<path d="M344.38 155.184C344.38 155.023 344.681 154.993 344.681 155.184C344.681 160.471 344.946 165.755 345.475 171.015C345.696 173.456 347.665 186.947 351.894 185.963C352.607 185.802 352.969 185.099 353.079 184.034C353.061 182.637 352.872 181.247 352.517 179.895C352.045 177.073 351.663 174.24 351.422 171.387C350.931 166.078 350.988 160.732 351.592 155.435C351.592 155.398 351.607 155.362 351.634 155.336C351.66 155.309 351.696 155.295 351.733 155.295C351.77 155.295 351.806 155.309 351.833 155.336C351.859 155.362 351.874 155.398 351.874 155.435C351.744 162.8 352.174 170.164 353.16 177.464C353.692 180.97 355.45 186.254 351.783 186.796C348.117 187.339 345.626 178.499 345.174 176.078C344.005 169.177 343.738 162.154 344.38 155.184Z" fill="#263238"/>
<path d="M351.783 186.304C352.174 187.214 352.509 188.147 352.788 189.097C353.056 189.834 353.188 190.613 353.18 191.397C353.174 191.428 353.159 191.457 353.136 191.48C353.114 191.503 353.085 191.518 353.054 191.525C353.023 191.531 352.991 191.528 352.961 191.516C352.931 191.504 352.906 191.484 352.888 191.457C352.436 190.773 352.097 190.02 351.884 189.227C351.562 188.363 351.221 187.499 350.879 186.626C350.837 186.506 350.843 186.374 350.898 186.259C350.953 186.144 351.051 186.055 351.171 186.013C351.29 185.97 351.422 185.977 351.537 186.032C351.652 186.086 351.741 186.184 351.783 186.304Z" fill="#263238"/>
<path d="M391.191 171.688C387.173 171.286 383.074 171.337 379.367 169.549C375.661 167.761 373.2 164.164 371.331 160.578C370.147 158.358 369.252 155.995 368.669 153.547C368.669 153.436 368.468 153.466 368.478 153.547C368.63 155.838 369.181 158.085 370.106 160.187C370.941 162.261 372.006 164.236 373.28 166.073C374.472 167.82 376.032 169.284 377.851 170.362C379.718 171.365 381.768 171.98 383.878 172.17C386.338 172.442 388.821 172.442 391.281 172.17C391.345 172.158 391.402 172.122 391.438 172.068C391.475 172.014 391.489 171.948 391.477 171.884C391.465 171.82 391.428 171.764 391.374 171.727C391.321 171.69 391.255 171.676 391.191 171.688Z" fill="#263238"/>
<path d="M396.675 195.586C396.117 193.632 395.717 191.637 395.48 189.619C395.369 187.61 396.485 185.892 397.037 184.044C399.388 176.852 398.433 168.976 395.872 162.005C394.343 158.028 392.495 154.182 390.347 150.503C390.297 150.403 390.156 150.503 390.206 150.593C393.712 157.424 396.806 164.727 397.489 172.452C397.857 176.165 397.516 179.915 396.485 183.501C395.972 185.199 394.988 186.836 394.847 188.625C394.853 190.517 395.147 192.397 395.721 194.2C396.233 196.43 397.8 203.24 398.484 205.46C398.544 205.651 398.885 205.611 398.855 205.4C398.524 203.411 397.127 197.655 396.675 195.586Z" fill="#263238"/>
<path d="M399.729 206.927C394.707 206.565 389.684 206.565 384.722 206.616C379.759 206.666 374.827 206.736 369.885 206.847C367.052 206.907 364.209 206.967 361.387 207.168C361.196 207.168 361.206 207.419 361.387 207.429C366.409 207.741 371.432 207.7 376.384 207.741C381.336 207.781 386.279 207.741 391.231 207.741C394.074 207.69 396.896 207.58 399.729 207.349C399.785 207.349 399.839 207.327 399.878 207.287C399.918 207.247 399.94 207.194 399.94 207.138C399.94 207.082 399.918 207.028 399.878 206.989C399.839 206.949 399.785 206.927 399.729 206.927Z" fill="#263238"/>
<path d="M335.359 419.725C337.74 420.538 405.796 421.01 408.408 419.393C409.413 418.791 410.046 408.876 410.488 396.882C410.588 394.29 410.668 391.618 410.729 388.896C410.819 385.681 410.889 382.417 410.94 379.253C410.993 369.906 410.322 360.569 408.931 351.327L366.741 352.08L366.5 378.811L366.419 388.454L366.57 396.44C366.57 396.44 340.452 407.922 337.76 410.011C335.068 412.1 332.999 418.921 335.359 419.725Z" fill="#F7A9A0"/>
<path d="M335.359 419.725C337.74 420.538 405.796 421.01 408.408 419.393C409.413 418.79 410.046 408.876 410.488 396.882C410.588 394.29 410.668 391.618 410.729 388.896C410.819 385.681 410.889 382.417 410.94 379.253L366.54 378.811L366.459 388.454L366.61 396.44C366.61 396.44 340.493 407.922 337.8 410.011C335.108 412.1 332.999 418.921 335.359 419.725Z" fill="#DBDBDB"/>
<path d="M335.159 419.825C336.706 420.347 365.686 420.739 386.801 420.508C391.683 420.458 396.153 420.368 399.759 420.247C404.782 420.066 408.067 419.825 408.609 419.494C409.815 418.73 410.528 404.175 410.96 388.826L366.429 388.384L366.58 396.42C366.58 396.42 340.292 407.952 337.61 410.101C334.928 412.251 332.778 419.001 335.159 419.825Z" fill="#FFC727"/>
<path d="M336.153 417.133C347.635 416.932 393.933 417.203 405.294 417.876C405.385 417.876 405.385 417.947 405.294 417.947C393.923 418.399 347.625 417.746 336.153 417.324C335.942 417.274 335.942 417.133 336.153 417.133Z" fill="#263238"/>
<path d="M364.973 393.848C369.493 393.045 375.018 393.778 378.443 397.012C378.574 397.143 378.393 397.324 378.242 397.284C373.941 395.859 369.499 394.9 364.993 394.421C364.925 394.411 364.864 394.378 364.818 394.327C364.773 394.276 364.747 394.211 364.745 394.143C364.742 394.075 364.764 394.008 364.805 393.954C364.847 393.9 364.906 393.863 364.973 393.848Z" fill="#263238"/>
<path d="M361.698 395.797C366.218 394.983 371.743 395.717 375.169 398.951C375.299 399.082 375.118 399.273 374.978 399.222C370.673 397.798 366.227 396.838 361.718 396.36C361.643 396.362 361.571 396.335 361.516 396.284C361.462 396.233 361.429 396.163 361.427 396.088C361.424 396.014 361.451 395.941 361.502 395.886C361.553 395.832 361.623 395.8 361.698 395.797Z" fill="#263238"/>
<path d="M358.433 397.736C362.954 396.922 368.479 397.655 371.894 400.9C372.024 401.02 371.844 401.211 371.703 401.161C367.398 399.74 362.952 398.784 358.443 398.308C358.376 398.297 358.315 398.263 358.271 398.211C358.227 398.16 358.202 398.094 358.201 398.026C358.199 397.958 358.222 397.892 358.265 397.839C358.307 397.786 358.367 397.749 358.433 397.736Z" fill="#263238"/>
<path d="M355.159 399.674C359.679 398.861 365.204 399.594 368.619 402.839C368.75 402.959 368.619 403.15 368.428 403.1C364.123 401.679 359.678 400.722 355.169 400.247C355.102 400.236 355.041 400.201 354.996 400.15C354.952 400.098 354.927 400.033 354.926 399.965C354.925 399.897 354.947 399.831 354.99 399.778C355.032 399.725 355.092 399.688 355.159 399.674Z" fill="#263238"/>
<path d="M358.684 389.8C361.859 392.301 366.017 393.346 369.734 394.752C370.116 394.903 370.427 394.541 370.447 394.19C370.466 394.19 370.485 394.186 370.502 394.176C370.519 394.167 370.533 394.154 370.543 394.138C370.553 394.122 370.559 394.103 370.56 394.084C370.561 394.065 370.556 394.046 370.548 394.029C369.204 390.024 366.831 386.442 363.667 383.642C361.798 382.045 358.504 380.92 356.705 383.351C354.907 385.782 356.836 388.333 358.684 389.8ZM357.559 386.154C356.806 381.201 362.1 383.833 363.436 385.069C364.285 385.88 365.078 386.749 365.806 387.67C367.293 389.591 368.682 391.586 369.965 393.647C368.177 392.844 366.339 392.201 364.531 391.468C362.371 390.594 357.981 388.886 357.559 386.154Z" fill="#263238"/>
<path d="M385.676 387.259C384.601 384.436 381.125 384.627 378.885 385.661C375.084 387.508 371.837 390.325 369.473 393.828C369.413 393.908 369.473 393.979 369.533 394.009C369.506 394.093 369.5 394.182 369.514 394.269C369.528 394.356 369.562 394.439 369.614 394.51C369.666 394.582 369.734 394.64 369.812 394.68C369.891 394.72 369.977 394.742 370.066 394.742C374.023 394.381 378.303 394.491 382.029 392.934C384.209 392.02 386.68 389.931 385.676 387.259ZM375.962 393.025C374.013 393.246 372.075 393.366 370.136 393.667C371.984 392.08 373.742 390.423 375.741 389.016C376.702 388.326 377.709 387.702 378.755 387.148C380.362 386.324 386.178 385.209 384.119 389.78C382.954 392.251 378.273 392.703 375.962 393.025Z" fill="#263238"/>
<path d="M343.124 70.8143C342.733 74.7118 342.331 78.6194 342.12 82.527C341.979 84.9178 341.999 87.2784 342.12 89.6491C342.95 90.5278 343.876 91.3097 344.882 91.9795C344.882 91.3768 344.832 90.7741 344.812 90.1915C344.701 87.3587 344.812 84.5561 344.993 81.7334C344.993 81.633 345.133 81.6631 345.133 81.7334C345.063 84.6465 345.214 87.5797 345.395 90.4929C345.395 91.1257 345.495 91.7586 345.555 92.3814C346.52 92.9687 347.527 93.4825 348.569 93.9183C348.509 93.2252 348.468 92.532 348.418 91.849C348.298 90.2518 348.217 88.6445 348.177 87.0373C348.103 83.8695 348.211 80.7001 348.499 77.5446C348.499 77.414 348.689 77.4542 348.679 77.5446C348.599 80.7992 348.619 84.074 348.75 87.3286C348.82 88.8655 348.9 90.4125 349.021 91.9494C349.081 92.6827 349.172 93.4261 349.242 94.1594C351.142 94.8953 353.101 95.47 355.098 95.8771C360.794 97.0725 366.871 96.2789 372.466 94.8123C377.383 93.5735 381.926 91.1607 385.706 87.7807C384.147 85.4181 382.936 82.8436 382.11 80.1362C382.115 80.1232 382.124 80.112 382.136 80.1041C382.147 80.0962 382.161 80.092 382.175 80.092C382.189 80.092 382.203 80.0962 382.215 80.1041C382.226 80.112 382.235 80.1232 382.24 80.1362C383.044 81.8305 383.911 83.5047 384.842 85.1588C385.284 85.9223 385.766 86.6455 386.238 87.3889C386.289 87.3286 386.349 87.2784 386.399 87.2282C386.771 86.8665 387.153 86.4949 387.524 86.083C386.618 84.5468 385.8 82.9604 385.073 81.3316C383.976 79.0508 383.082 76.6776 382.401 74.2397C382.401 74.079 382.562 73.9886 382.632 74.1393C383.637 76.3894 384.641 78.6596 385.646 80.8896C386.389 82.4567 387.223 83.9735 388.006 85.5205C388.603 84.9157 389.069 84.196 389.379 83.405C389.688 82.6141 389.833 81.7685 389.804 80.9198C389.552 79.4791 389.038 78.0968 388.288 76.8414C387.575 75.3952 386.938 73.9133 386.379 72.4014C385.214 69.2874 381.688 45.0985 373.32 45.7414C373.32 45.6711 360.261 35.1337 352.577 41.2914C340.342 51.0754 338.343 79.2523 338.704 82.4165C338.956 84.7448 339.857 86.9553 341.306 88.7952C341.236 86.7862 341.306 84.7771 341.437 82.8384C341.736 78.7975 342.239 74.7744 342.944 70.7841C342.946 70.7723 342.95 70.7609 342.956 70.7507C342.963 70.7405 342.971 70.7316 342.981 70.7246C342.99 70.7176 343.002 70.7126 343.013 70.7099C343.025 70.7072 343.037 70.7068 343.049 70.7088C343.061 70.7108 343.072 70.7151 343.082 70.7215C343.093 70.7278 343.102 70.7361 343.109 70.7459C343.116 70.7557 343.121 70.7668 343.123 70.7785C343.126 70.7903 343.126 70.8024 343.124 70.8143Z" fill="#263238"/>
<path d="M348.599 94.0488C339.418 102.306 306.218 135.978 309.011 147.108C311.602 157.454 321.256 159.162 327.564 153.587C336.705 145.45 351.181 113.778 354.827 104.044C358.293 94.7822 357.63 85.9323 348.599 94.0488Z" fill="#F7A9A0"/>
<path d="M345.776 128.283L317.74 118.238C317.74 118.238 341.849 96.0579 350.779 91.5275C360.824 86.4446 361.226 92.6927 357.981 102.899C354.737 113.105 345.776 128.283 345.776 128.283Z" fill="#FFC727"/>
<path d="M323.476 114.662C324.48 114.863 333.28 117.856 335.179 118.549C337.077 119.242 344.852 121.995 346.741 122.879C346.759 122.879 346.777 122.886 346.79 122.899C346.804 122.912 346.811 122.93 346.811 122.949C346.811 122.968 346.804 122.985 346.79 122.999C346.777 123.012 346.759 123.019 346.741 123.019C344.732 122.517 336.876 119.755 334.927 119.092C332.979 118.429 324.35 115.264 323.456 114.792C323.335 114.772 323.406 114.652 323.476 114.662Z" fill="#263238"/>
<path opacity="0.1" d="M357.981 102.889C354.737 113.095 345.776 128.283 345.776 128.283L327.424 121.703L358.041 90.0207C360.663 91.2563 360.051 96.2287 357.981 102.889Z" fill="black"/>
<path d="M397.81 156.781L334.676 156.59L340.703 133.235C340.703 133.235 335.44 126.646 337.168 120.016C339.629 110.754 353.451 92.6727 354.626 91.6681C359.357 87.65 366.901 87.4391 370.256 90.8846C390.267 111.427 397.81 156.781 397.81 156.781Z" fill="#FFC727"/>
<path d="M359.156 127.831C356.203 128.105 353.275 128.602 350.397 129.318C348.971 129.689 347.574 130.131 346.178 130.603C345.485 130.834 344.782 131.045 344.079 131.246C343.347 131.488 342.587 131.636 341.818 131.688C341.748 131.688 341.758 131.799 341.818 131.799C342.546 131.829 343.274 131.809 343.998 131.739C344.697 131.654 345.388 131.52 346.068 131.337C347.514 130.975 348.951 130.543 350.397 130.161C353.31 129.398 356.233 128.624 359.197 128.072C359.229 128.067 359.257 128.049 359.276 128.022C359.295 127.996 359.302 127.963 359.297 127.931C359.292 127.899 359.274 127.871 359.248 127.852C359.221 127.833 359.188 127.826 359.156 127.831Z" fill="#263238"/>
<path d="M366.479 130.392C364.043 130.153 361.595 130.049 359.146 130.081C357.921 130.081 356.705 130.192 355.49 130.322L353.752 130.523C353.109 130.613 352.486 130.784 351.844 130.855C351.783 130.855 351.783 130.975 351.844 130.965C352.446 130.915 353.059 130.965 353.662 130.965L355.49 130.905C356.716 130.905 357.931 130.844 359.156 130.794C361.597 130.694 364.028 130.623 366.469 130.613C366.61 130.593 366.6 130.402 366.479 130.392Z" fill="#263238"/>
<path d="M369.282 99.1116C372.718 110.975 391.291 156.771 401.588 159.001C411.884 161.231 420.111 159.132 419.93 150.684C419.739 141.492 388.167 105.37 380.995 97.856C374.164 90.6636 365.907 87.4592 369.282 99.1116Z" fill="#F7A9A0"/>
<path d="M376.334 128.765L405.304 121.864C405.304 121.864 383.787 97.1629 375.42 91.6681C365.987 85.5004 364.892 91.6682 367.002 102.175C369.111 112.683 376.334 128.765 376.334 128.765Z" fill="#FFC727"/>
<path d="M399.98 117.474C398.976 117.555 389.885 119.574 387.926 120.046C385.967 120.518 377.941 122.406 375.952 123.059C375.933 123.059 375.916 123.067 375.902 123.08C375.889 123.093 375.882 123.111 375.882 123.13C375.882 123.148 375.889 123.166 375.902 123.179C375.916 123.193 375.933 123.2 375.952 123.2C377.961 122.919 386.118 121.05 388.127 120.598C390.136 120.146 399.056 117.967 400.01 117.585C400.111 117.575 400.051 117.474 399.98 117.474Z" fill="#263238"/>
<path d="M378.936 128.142C378.042 128.464 377.127 128.735 376.223 129.026L376.123 128.835C372.754 122.504 370.257 115.746 368.699 108.745L372.667 118.68C373.812 121.623 375.45 125.711 376.525 128.655L376.274 128.534C377.158 128.393 378.031 128.233 378.926 128.122L378.936 128.142Z" fill="#263238"/>
<path d="M367.966 110.975C369.161 112.054 370.101 113.385 370.719 114.873C370.012 114.452 369.402 113.888 368.927 113.217C368.453 112.545 368.126 111.781 367.966 110.975Z" fill="#263238"/>
<path d="M368.83 91.2563C368.418 92.4115 361.979 99.4331 356.635 98.5893C354.887 98.3181 355.972 88.745 355.972 88.745L355.892 88.0217L354.747 77.8761L367.203 71.6782L368.991 70.8746C368.991 70.8746 369.111 73.6671 369.242 77.1528C369.242 77.3135 369.242 77.4743 369.242 77.645C369.242 77.8158 369.242 78.0267 369.242 78.2176C369.242 78.7299 369.292 79.2221 369.312 79.7947C369.332 80.3673 369.312 80.5883 369.312 81.0102C369.312 81.4321 369.312 81.854 369.312 82.2759C369.354 85.2768 369.193 88.2771 368.83 91.2563Z" fill="#F7A9A0"/>
<path d="M369.242 77.1528C367.939 79.8252 366.07 82.1817 363.765 84.0587C361.459 85.9357 358.773 87.288 355.892 88.0217L354.747 77.8761L367.203 71.6782L368.991 70.8746C368.991 70.8746 369.091 73.6671 369.242 77.1528Z" fill="#263238"/>
<path d="M342.873 60.749C339.538 78.3582 349.704 82.3361 353.501 83.0594C356.957 83.7023 368.77 85.4803 373.913 68.313C379.056 51.1457 371.904 44.0237 364.109 42.1251C356.314 40.2266 346.208 43.1397 342.873 60.749Z" fill="#F7A9A0"/>
<path d="M348.79 57.9564C349.212 57.9564 349.603 57.8961 350.025 57.8559C350.463 57.8801 350.897 57.7601 351.261 57.5144C351.36 57.4143 351.424 57.2844 351.442 57.1446C351.46 57.0049 351.432 56.8631 351.361 56.7409C351.185 56.5214 350.954 56.3534 350.69 56.2544C350.427 56.1554 350.142 56.1292 349.865 56.1784C349.287 56.1839 348.734 56.4104 348.318 56.8113C348.225 56.9053 348.162 57.0246 348.137 57.1542C348.111 57.2837 348.125 57.4179 348.175 57.5399C348.225 57.662 348.311 57.7666 348.42 57.8406C348.529 57.9147 348.658 57.9549 348.79 57.9564Z" fill="#263238"/>
<path d="M361.236 60.1664C360.842 60.0417 360.457 59.8941 360.081 59.7244C359.651 59.6233 359.266 59.3832 358.986 59.0413C358.92 58.9182 358.897 58.7771 358.918 58.6394C358.94 58.5017 359.006 58.3748 359.106 58.2779C359.337 58.116 359.607 58.0193 359.888 57.9981C360.169 57.9769 360.451 58.0319 360.703 58.1573C361.248 58.3247 361.714 58.681 362.019 59.1618C362.09 59.2801 362.123 59.417 362.115 59.5545C362.106 59.6921 362.056 59.8238 361.972 59.9325C361.887 60.0412 361.771 60.1216 361.64 60.1634C361.509 60.2051 361.368 60.2061 361.236 60.1664Z" fill="#263238"/>
<path d="M357.951 64.0036C357.951 64.0036 358.041 64.084 358.031 64.1242C357.81 65.3296 357.76 66.746 358.785 67.3085C358.785 67.3085 358.785 67.3889 358.785 67.3688C357.469 66.9871 357.549 65.1086 357.951 64.0036Z" fill="#263238"/>
<path d="M359.217 62.9087C361.226 63.0594 360.744 66.9268 358.926 66.8364C357.107 66.746 357.579 62.7882 359.217 62.9087Z" fill="#263238"/>
<path d="M359.97 63.2C360.282 63.4612 360.573 63.8931 360.975 63.9835C361.377 64.0739 361.849 63.7123 362.21 63.3507H362.271C362.2 64.1041 361.819 64.8374 361.005 64.8675C360.191 64.8976 359.809 64.1643 359.709 63.3808C359.699 63.2904 359.84 63.0996 359.97 63.2Z" fill="#263238"/>
<path d="M350.568 62.6877C350.568 62.6375 350.467 62.6877 350.467 62.7781C350.377 64.0036 350.076 65.3798 348.93 65.6711V65.7414C350.297 65.6912 350.688 63.8529 350.568 62.6877Z" fill="#263238"/>
<path d="M349.624 61.3015C347.685 60.9499 347.122 64.8575 348.92 65.1789C350.719 65.5004 351.241 61.6028 349.624 61.3015Z" fill="#263238"/>
<path d="M348.77 61.4421C348.428 61.6028 348.077 61.9343 347.705 61.9142C347.333 61.8941 347.012 61.412 346.801 60.97C346.801 60.97 346.741 60.97 346.731 60.97C346.61 61.7133 346.731 62.527 347.434 62.7681C348.137 63.0091 348.639 62.4265 348.93 61.7033C349.001 61.6028 348.91 61.3818 348.77 61.4421Z" fill="#263238"/>
<path d="M355.962 73.7776C355.651 74.0388 355.339 74.4105 354.897 74.4205C354.443 74.381 354.002 74.2476 353.601 74.0287C353.601 74.0287 353.531 74.0287 353.551 74.089C353.709 74.3389 353.932 74.5416 354.195 74.6759C354.458 74.8102 354.753 74.8712 355.048 74.8525C355.295 74.7998 355.521 74.677 355.699 74.4987C355.877 74.3205 356 74.0945 356.053 73.8479C356.103 73.7676 356.032 73.7374 355.962 73.7776Z" fill="#263238"/>
<path d="M351.472 68.3331C351.472 68.3331 350.95 70.3422 350.839 71.2462C351.654 71.4299 352.499 71.4258 353.312 71.2344C354.125 71.043 354.883 70.6691 355.53 70.1412C355.6 70.0709 355.53 69.9604 355.42 70.0006C354.258 70.646 352.917 70.8897 351.602 70.6937C351.602 70.4527 352.497 67.5898 352.366 67.5596C351.69 67.5419 351.015 67.6094 350.357 67.7605C351.241 64.0338 352.707 60.4677 353.531 56.7108C353.535 56.6837 353.529 56.6562 353.515 56.6328C353.5 56.6095 353.479 56.5917 353.453 56.5823C353.427 56.573 353.399 56.5726 353.373 56.5814C353.347 56.5901 353.325 56.6074 353.31 56.6304C351.62 60.3991 350.308 64.3258 349.393 68.3532C349.272 68.8655 351.11 68.4336 351.472 68.3331Z" fill="#263238"/>
<path d="M351.572 71.0855C352.011 71.8262 352.63 72.4445 353.37 72.8836C353.779 73.1043 354.246 73.1921 354.706 73.1347C355.711 73.0041 355.862 72.1302 355.781 71.3165C355.737 70.894 355.639 70.4789 355.49 70.081C354.325 70.8259 352.952 71.178 351.572 71.0855Z" fill="#263238"/>
<path d="M353.37 72.8836C353.779 73.1043 354.246 73.1921 354.706 73.1347C355.711 73.0041 355.862 72.1302 355.781 71.3165C355.261 71.265 354.739 71.3921 354.301 71.677C353.863 71.9618 353.535 72.3874 353.37 72.8836Z" fill="#FF98B9"/>
<path d="M372.697 67.2482C370.829 66.9067 366.55 61.1106 367.514 51.9695C367.514 51.9695 367.213 60.2367 367.685 61.5124C368.157 62.7882 365.294 58.2477 365.967 50.8745C363.448 52.2611 360.741 53.2761 357.931 53.8881C354.335 54.4305 352.215 54.1392 351.994 53.8881C351.773 53.637 357.087 52.6224 358.664 51.206C358.664 51.206 348.9 54.3602 344.601 54.1593C344.109 54.1593 344.762 43.9433 351.874 40.4476C358.986 36.9519 368.84 42.8886 371.311 45.9323C371.311 45.9323 374.546 46.8062 377.519 52.1201C380.493 57.4341 374.717 67.6199 372.697 67.2482Z" fill="#263238"/>
<path d="M365.897 49.9001C365.957 49.7093 366.269 49.7495 366.218 49.9604C365.572 53.2523 365.62 56.6429 366.359 59.9152C366.359 59.9152 366.289 59.9755 366.279 59.9152C365.304 56.5099 364.842 53.3256 365.897 49.9001Z" fill="#263238"/>
<path d="M353.27 54.5009C358.293 54.5009 362.733 53.4963 366.52 50.0307C366.6 49.9604 366.731 50.0307 366.65 50.1513C363.416 54.0287 358.102 55.1739 353.26 54.6917C353.16 54.7219 353.16 54.5009 353.27 54.5009Z" fill="#263238"/>
<path d="M369.845 68.5642C369.845 68.5642 374.295 63.3909 376.685 65.0282C379.076 66.6656 375.329 74.4406 372.245 75.2442C371.859 75.3775 371.45 75.4309 371.043 75.4011C370.636 75.3714 370.238 75.2592 369.876 75.0713C369.513 74.8834 369.193 74.6237 368.933 74.3081C368.674 73.9925 368.482 73.6274 368.368 73.2352L369.845 68.5642Z" fill="#F7A9A0"/>
<path d="M375.55 67.2583V67.3386C373.391 67.9715 372.095 69.7897 371.13 71.7083C371.273 71.514 371.456 71.3528 371.666 71.2355C371.877 71.1182 372.11 71.0476 372.35 71.0285C372.59 71.0095 372.832 71.0424 373.058 71.125C373.284 71.2076 373.49 71.3381 373.662 71.5074C373.712 71.5074 373.662 71.6279 373.602 71.6179C373.248 71.4617 372.854 71.4203 372.476 71.4996C372.097 71.5789 371.753 71.7748 371.492 72.0599C371.06 72.536 370.676 73.0543 370.347 73.6068C370.236 73.7877 369.905 73.6069 369.995 73.4461C370.246 70.744 372.677 67.2382 375.55 67.2583Z" fill="#263238"/>
<path d="M369.242 89.2272C363.978 93.6973 372.446 133.426 377.66 143.391C380.322 148.414 399.759 166.646 400.071 166.495C400.382 166.344 400.262 161.091 399.408 159.815C398.554 158.539 386.228 142.678 383.647 137.715C379.136 129.077 371.944 98.6998 373.31 90.0207C373.381 89.5888 369.814 88.7349 369.242 89.2272Z" fill="#263238"/>
<path d="M418.313 151.196C421.547 158.961 411.442 162.306 405.827 160.518C392.637 156.349 371.743 143.692 363.134 134.712C360.362 131.819 379.649 111.528 383.486 113.446C387.484 115.465 411.733 135.455 418.313 151.196Z" fill="#F7A9A0"/>
<path d="M363.978 93.6772C363.13 94.1003 362.433 94.7727 361.978 95.6042C361.524 96.4356 361.335 97.3861 361.437 98.3281C359.843 98.1204 358.226 98.4757 356.866 99.3326C354.546 100.96 356.073 105.31 356.073 105.31C354.374 105.437 352.753 106.074 351.422 107.138C349.362 108.916 350.277 113.537 350.277 113.537C348.767 114.532 347.671 116.042 347.193 117.786C346.068 122.427 351.12 127.831 354.686 130.784C358.946 134.34 371.08 141.412 373.28 142.889L393.722 121.804C393.722 121.804 383.597 102.718 379.267 99.2824C375.611 96.4597 367.273 92.2005 363.978 93.6772Z" fill="#F7A9A0"/>
<path d="M361.608 98.3181C366.218 100.438 369.955 103.803 373.873 106.947C373.886 106.952 373.898 106.96 373.908 106.971C373.917 106.982 373.924 106.995 373.928 107.009C373.931 107.023 373.931 107.037 373.928 107.051C373.925 107.065 373.918 107.079 373.909 107.09C373.9 107.101 373.888 107.109 373.875 107.115C373.861 107.12 373.847 107.122 373.832 107.121C373.818 107.12 373.804 107.115 373.792 107.108C373.78 107.1 373.77 107.09 373.762 107.077C369.905 103.903 365.465 101.543 361.477 98.529C361.459 98.508 361.449 98.4819 361.447 98.4544C361.445 98.427 361.451 98.3997 361.466 98.3763C361.48 98.3529 361.502 98.3347 361.527 98.3242C361.553 98.3138 361.581 98.3116 361.608 98.3181Z" fill="#263238"/>
<path d="M356.424 105.129C357.427 105.713 358.348 106.426 359.167 107.248C360.081 108.062 360.985 108.896 361.869 109.739C363.657 111.427 365.395 113.158 367.082 114.933C367.163 115.013 367.082 115.154 366.972 115.073C365.194 113.386 363.396 111.738 361.547 110.131C360.623 109.328 359.689 108.534 358.755 107.74C357.825 107.051 356.973 106.263 356.213 105.39C356.196 105.358 356.188 105.322 356.191 105.286C356.194 105.25 356.208 105.216 356.23 105.188C356.253 105.16 356.284 105.139 356.318 105.129C356.353 105.118 356.39 105.118 356.424 105.129Z" fill="#263238"/>
<path d="M350.347 113.617C351.244 114.15 352.045 114.829 352.718 115.626L355.118 117.977C356.726 119.534 358.333 121.081 359.99 122.577C360.071 122.658 359.99 122.788 359.88 122.718C358.182 121.201 356.474 119.704 354.787 118.187C353.963 117.434 353.139 116.681 352.326 115.917C351.513 115.293 350.816 114.532 350.267 113.667C350.267 113.658 350.271 113.649 350.275 113.642C350.28 113.634 350.287 113.627 350.294 113.623C350.302 113.618 350.311 113.615 350.32 113.614C350.329 113.613 350.338 113.614 350.347 113.617Z" fill="#263238"/>
<path d="M413.993 143.592C409.182 137.494 404.32 130.995 398.524 125.822C405.063 130.292 409.985 136.872 413.993 143.592Z" fill="#263238"/>
<path d="M370.97 94.6817C367.032 92.8233 361.085 92.6727 361.587 98.519C359.84 98.4185 357.64 98.6295 356.565 100.106C355.49 101.583 356.043 103.953 356.565 105.681H356.083C350.879 106.043 350.056 109.297 350.869 113.858C350.118 114.247 349.452 114.783 348.914 115.436C348.375 116.089 347.974 116.843 347.735 117.655C345.847 127.138 364.26 137.052 371.14 141.553C365.033 138.515 359.251 134.863 353.883 130.654C348.91 126.636 342.371 117.997 350.156 113.185L349.895 113.697C349.466 111.634 349.68 109.488 350.508 107.55C351.703 105.631 353.983 105.068 356.073 104.958L355.731 105.44C355.451 104.511 355.299 103.548 355.279 102.577C355.078 98.9409 358.383 97.7957 361.457 98.1975L361.306 98.3482C361.055 92.3713 366.972 92.6526 370.97 94.6516V94.6817Z" fill="#263238"/>
<path d="M390.729 151.357L383.727 104.677L376.645 105.551L383.637 152.231L390.729 151.357Z" fill="#37474F"/>
<path d="M383.637 152.231L376.645 105.551L358.152 107.841L365.153 154.521L383.637 152.231Z" fill="#455A64"/>
<path d="M389.985 146.405L389.332 142.055L382.24 142.929L382.893 147.278L389.985 146.405Z" fill="#455A64"/>
<path d="M388.91 139.192L388.649 137.514L381.567 138.388L381.819 140.076L388.91 139.192Z" fill="#455A64"/>
<path d="M380.131 153.788L372.607 103.632L363.747 104.727L371.271 154.893L380.131 153.788Z" fill="#C7C7C7"/>
<path d="M373.812 111.628L373.079 106.756L364.219 107.851L364.953 112.733L373.812 111.628Z" fill="#FFC727"/>
<path d="M374.385 115.475L374.084 113.436L365.224 114.541L365.525 116.57L374.385 115.475Z" fill="#FFC727"/>
<path d="M379.217 147.69L378.484 142.808L369.624 143.913L370.357 148.785L379.217 147.69Z" fill="#FFC727"/>
<path d="M354.526 157.012L371.271 154.933L363.747 104.727L347.002 106.806L354.526 157.012Z" fill="#EBEBEB"/>
<path d="M369.463 154.37L362.522 108.062L355.159 108.976L362.1 155.284L369.463 154.37Z" fill="#455A64"/>
<path d="M362.1 155.284L355.159 108.976L336.484 111.286L343.426 157.595L362.1 155.284Z" fill="#37474F"/>
<path d="M368.699 154.461L361.758 108.152L355.922 108.876L362.863 155.184L368.699 154.461Z" fill="white"/>
<path d="M357.569 111.759C359.99 125.681 362.291 141.05 364.059 155.063C361.638 141.151 359.337 125.782 357.569 111.759Z" fill="#DBDBDB"/>
<path d="M358.715 111.588C361.135 125.51 363.436 140.88 365.204 154.893C362.783 140.98 360.482 125.601 358.715 111.588Z" fill="#DBDBDB"/>
<path d="M359.86 111.447C362.281 125.37 364.581 140.739 366.349 154.752C363.928 140.829 361.628 125.46 359.86 111.447Z" fill="#DBDBDB"/>
<path d="M361.055 111.307C363.476 125.219 365.776 140.598 367.544 154.611C365.123 140.689 362.823 125.32 361.055 111.307Z" fill="#DBDBDB"/>
<path d="M313.501 154.441C306.359 149.729 312.979 140.176 318.735 138.579C332.245 134.812 354.636 135.264 367.012 138.047C371.03 138.941 371.09 164.918 366.761 165.43C362.22 166.003 327.986 163.994 313.501 154.441Z" fill="#F7A9A0"/>
<path d="M391.854 132.974C392.244 133.797 392.372 134.72 392.221 135.618C392.07 136.516 391.648 137.346 391.01 137.997C392.339 138.783 393.352 140.008 393.873 141.462C394.676 144.074 390.93 146.485 390.93 146.485C392.139 147.589 392.989 149.031 393.371 150.623C393.873 153.205 390.447 156.148 390.447 156.148C391.007 157.786 390.954 159.57 390.297 161.171C388.388 165.36 381.377 166.435 376.916 166.565C371.572 166.736 358.202 164.898 355.651 164.697L352.637 136.681C352.637 136.681 371.643 128.213 376.937 128.213C381.407 128.152 390.246 129.84 391.854 132.974Z" fill="#F7A9A0"/>
<path d="M390.899 137.876C386.158 136.741 381.326 137.072 376.495 137.133C376.394 137.133 376.394 137.293 376.495 137.293C381.296 137.183 386.068 138.027 390.869 138.107C390.896 138.104 390.92 138.092 390.939 138.073C390.958 138.054 390.97 138.03 390.973 138.003C390.977 137.977 390.971 137.95 390.958 137.927C390.945 137.904 390.924 137.886 390.899 137.876Z" fill="#263238"/>
<path d="M390.779 146.103C389.675 145.957 388.557 145.957 387.454 146.103C386.279 146.173 385.103 146.274 383.928 146.384C381.577 146.605 379.237 146.877 376.896 147.228C376.796 147.228 376.796 147.399 376.896 147.389C379.237 147.178 381.577 146.987 383.928 146.877C385.103 146.816 386.279 146.766 387.464 146.726C388.575 146.757 389.687 146.666 390.779 146.455C390.825 146.455 390.87 146.436 390.903 146.403C390.936 146.37 390.955 146.326 390.955 146.279C390.955 146.232 390.936 146.188 390.903 146.155C390.87 146.122 390.825 146.103 390.779 146.103Z" fill="#263238"/>
<path d="M390.347 156.138C389.342 156.012 388.322 156.06 387.333 156.279L384.119 156.631C381.979 156.852 379.84 157.073 377.7 157.223C377.682 157.229 377.667 157.241 377.656 157.256C377.645 157.272 377.639 157.29 377.639 157.309C377.639 157.327 377.645 157.346 377.656 157.361C377.667 157.376 377.682 157.388 377.7 157.394C379.88 157.253 382.06 157.143 384.239 156.982L387.454 156.731C388.437 156.742 389.413 156.575 390.337 156.239C390.35 156.24 390.363 156.236 390.374 156.228C390.384 156.219 390.391 156.207 390.392 156.194C390.393 156.18 390.389 156.167 390.381 156.157C390.372 156.146 390.36 156.14 390.347 156.138Z" fill="#263238"/>
<path d="M315.45 140.267C321.025 136.791 327.856 136.54 334.224 135.998C340.593 135.455 347.163 135.526 353.632 135.736C359.659 132.944 367.866 129.177 375.179 127.781C377.15 127.66 379.129 127.822 381.055 128.263C384.822 129.056 389.091 129.679 391.874 132.562C392.52 133.415 392.81 134.485 392.683 135.548C392.556 136.611 392.021 137.582 391.191 138.258V137.705C393.782 138.911 395.48 142.597 393.2 144.878C392.581 145.579 391.847 146.17 391.03 146.625V146.334C393.431 148.825 394.556 151.749 391.894 154.561C394.425 151.638 393.119 148.795 390.608 146.435C391.446 145.951 392.194 145.326 392.818 144.586C394.907 142.276 392.888 138.991 390.377 138.057L390.809 137.725C396.464 130.985 380.764 128.946 376.635 128.614C372.416 128.866 368.408 130.724 364.39 132.13C360.744 133.496 357.158 135.144 353.571 136.631C347.132 136.42 340.663 136.349 334.224 136.631C327.785 136.912 321.166 137.083 315.42 140.277L315.45 140.267Z" fill="#263238"/>
</svg>
