<svg width="500" height="500" viewBox="0 0 500 500" fill="none" xmlns="http://www.w3.org/2000/svg">
<path d="M426.777 426.777C391.814 461.74 347.268 485.55 298.773 495.196C250.277 504.843 200.011 499.892 154.329 480.97C108.648 462.048 69.603 430.005 42.1326 388.893C14.6622 347.78 3.04528e-06 299.445 0 250C-3.04528e-06 200.555 14.6622 152.22 42.1326 111.107C69.6029 69.9952 108.648 37.952 154.329 19.0301C200.011 0.108214 250.277 -4.84262 298.773 4.80367C347.268 14.45 391.814 38.2602 426.777 73.2233L250 250L426.777 426.777Z" fill="#FF007A"/>
<circle cx="250" cy="250" r="151" fill="url(#paint0_linear_1008_5)" stroke="black" stroke-width="2"/>
<defs>
<linearGradient id="paint0_linear_1008_5" x1="250" y1="100" x2="250" y2="400" gradientUnits="userSpaceOnUse">
<stop stop-color="#00FFD1"/>
<stop offset="1" stop-color="#005099"/>
</linearGradient>
</defs>
</svg>
