<svg width="500" height="500" viewBox="0 0 500 500" fill="none" xmlns="http://www.w3.org/2000/svg">
<g clip-path="url(#clip0_4_41)">
<path d="M298.578 5.78457C346.552 15.3273 390.646 38.7868 425.361 73.2248L249.293 249.293L248.586 250L249.293 250.707L425.361 426.776C390.646 461.214 346.552 484.673 298.578 494.215C250.276 503.824 200.211 498.893 154.712 480.046C109.213 461.2 70.3246 429.285 42.9641 388.338C15.6035 347.389 1 299.247 1 250C0.999997 200.753 15.6035 152.611 42.9641 111.663C70.3245 70.7153 109.213 38.8003 154.712 19.9541C200.211 1.10789 250.276 -3.82314 298.578 5.78457Z" fill="#FF007A" stroke="black" stroke-width="2"/>
<path d="M250 401C333.395 401 401 333.395 401 250C401 166.605 333.395 99 250 99C166.605 99 99 166.605 99 250C99 333.395 166.605 401 250 401Z" fill="url(#paint0_linear_4_41)" stroke="black" stroke-width="2"/>
</g>
<defs>
<linearGradient id="paint0_linear_4_41" x1="250" y1="100" x2="250" y2="400" gradientUnits="userSpaceOnUse">
<stop stop-color="#00FFD1"/>
<stop offset="1" stop-color="#005099"/>
</linearGradient>
<clipPath id="clip0_4_41">
<rect width="500" height="500" fill="white"/>
</clipPath>
</defs>
</svg>
