<svg width="500" height="500" viewBox="0 0 500 500" fill="none" xmlns="http://www.w3.org/2000/svg">
<g clip-path="url(#clip0_8_46)">
<path d="M425 426.777C390.183 461.74 345.822 485.55 297.529 495.196C249.235 504.843 199.178 499.892 153.686 480.97C108.196 462.048 69.3132 430.005 41.9572 388.893C14.6012 347.78 3.0326e-06 299.445 0 250C-3.0326e-06 200.555 14.6012 152.22 41.9572 111.107C69.3131 69.9953 108.196 37.9521 153.686 19.0302C199.178 0.108326 249.235 -4.84251 297.529 4.80378C345.822 14.4501 390.183 38.2603 425 73.2234L248.959 250L425 426.777Z" fill="#FF007A" stroke="black" stroke-width="2"/>
<path d="M249 399C331.843 399 399 331.843 399 249C399 166.157 331.843 99 249 99C166.157 99 99 166.157 99 249C99 331.843 166.157 399 249 399Z" fill="#FBBC04" stroke="black" stroke-width="2"/>
</g>
<defs>
<clipPath id="clip0_8_46">
<rect width="500" height="500" rx="250" fill="white"/>
</clipPath>
</defs>
</svg>
